<?xml version="1.0" encoding="utf-8"?>
<!-- Uploaded to: SVG Repo, www.svgrepo.com, Generator: SVG Repo Mixer Tools -->
<svg width="800px" height="800px" viewBox="0 -15.5 1055 1055" class="icon"  version="1.1" xmlns="http://www.w3.org/2000/svg"><path d="M267.343731 486.318889h112.332329v86.204522zM682.692789 473.247149h146.29691v101.878071h-41.801356zM452.824514 481.083924h148.898719v229.883948h-18.291032z" fill="#C0EAFF" /><path d="M356.824025 703.789387m-64.653391 0a64.653391 64.653391 0 1 0 129.306782 0 64.653391 64.653391 0 1 0-129.306782 0Z" fill="#C0EAFF" /><path d="M740.167695 705.74858m-58.77581 0a58.77581 58.77581 0 1 0 117.55162 0 58.77581 58.77581 0 1 0-117.55162 0Z" fill="#C0EAFF" /><path d="M353.31315 791.310486c-44.29345 0-80.32694-36.03349-80.326941-80.32694s36.03349-80.32694 80.326941-80.326941 80.32694 36.03349 80.32694 80.326941-36.03349 80.32694-80.32694 80.32694z m0-129.306782c-27.005526 0-48.979842 21.974316-48.979842 48.979842s21.974316 48.979842 48.979842 48.979842 48.979842-21.974316 48.979841-48.979842-21.98999-48.979842-48.979841-48.979842zM733.428069 791.310486c-44.29345 0-80.32694-36.03349-80.326941-80.32694s36.03349-80.32694 80.326941-80.326941 80.32694 36.03349 80.32694 80.326941-36.03349 80.32694-80.32694 80.32694z m0-129.306782c-27.005526 0-48.979842 21.974316-48.979842 48.979842s21.974316 48.979842 48.979842 48.979842 48.979842-21.974316 48.979841-48.979842-21.98999-48.979842-48.979841-48.979842z" fill="#1F87DD" /><path d="M663.759142 726.704116H417.966541a15.673549 15.673549 0 1 1 0-31.347099H663.774815a15.673549 15.673549 0 1 1-0.015673 31.347099zM832.328165 679.652121a15.673549 15.673549 0 0 1-15.673549-15.67355V417.151516H400.083021a15.673549 15.673549 0 1 1 0-31.347099h432.245144a15.673549 15.673549 0 0 1 15.673549 15.67355v262.516278a15.673549 15.673549 0 0 1-15.673549 15.657876zM350.115745 417.151516h-14.686115a15.673549 15.673549 0 1 1 0-31.347099h14.686115a15.673549 15.673549 0 1 1 0 31.347099zM281.058087 726.704116h-58.039153a15.673549 15.673549 0 0 1-15.67355-15.67355v-309.552599a15.673549 15.673549 0 0 1 15.67355-15.67355h65.875928a15.673549 15.673549 0 1 1 0 31.347099h-50.202379v278.205501h42.365604a15.673549 15.673549 0 1 1 0 31.347099z" fill="#1F87DD" /><path d="M832.328165 599.309507h-148.898719a15.673549 15.673549 0 0 1-15.673549-15.67355v-113.617559a15.673549 15.673549 0 0 1 15.673549-15.673549h29.121455a15.673549 15.673549 0 1 1 0 31.347098h-13.447906v82.270461h117.551621v-82.270461h-50.202379a15.673549 15.673549 0 1 1 0-31.347098h65.875928a15.673549 15.673549 0 0 1 15.673549 15.673549v113.617559a15.673549 15.673549 0 0 1-15.673549 15.67355zM383.923591 589.529212H268.331165a15.673549 15.673549 0 0 1-15.673549-15.673549v-94.05697a15.673549 15.673549 0 0 1 15.673549-15.67355h115.592426a15.673549 15.673549 0 0 1 15.67355 15.67355v94.05697a15.673549 15.673549 0 0 1-15.67355 15.673549z m-99.918877-31.347099h84.245328v-62.709871H284.004714v62.709871zM602.130746 724.697902h-148.898719a15.673549 15.673549 0 0 1-15.67355-15.67355V470.018398a15.673549 15.673549 0 0 1 15.67355-15.673549h148.898719a15.673549 15.673549 0 0 1 15.673549 15.673549v239.005954a15.673549 15.673549 0 0 1-15.673549 15.67355z m-133.22517-31.347099h117.55162V485.691947h-117.55162v207.658856z" fill="#1F87DD" /><path d="M527.681386 720.779514a15.673549 15.673549 0 0 1-15.673549-15.673549v-231.184853a15.673549 15.673549 0 1 1 31.347098 0v231.184853a15.673549 15.673549 0 0 1-15.673549 15.673549z" fill="#1F87DD" /><path d="M715.748305 415.145302a15.673549 15.673549 0 0 1-15.67355-15.67355v-29.638681h-131.265975v29.638681a15.673549 15.673549 0 1 1-31.347099 0v-45.312231a15.673549 15.673549 0 0 1 15.673549-15.673549h162.613075a15.673549 15.673549 0 0 1 15.673549 15.673549v45.312231a15.673549 15.673549 0 0 1-15.673549 15.67355z" fill="#1F87DD" /><path d="M600.108858 369.833071a15.516814 15.516814 0 0 1-9.466824-3.197404l-139.134098-105.796459a15.673549 15.673549 0 0 1 18.980669-24.936617l139.134097 105.796458a15.673549 15.673549 0 0 1-9.513844 28.134022zM694.212848 369.833071a15.516814 15.516814 0 0 1-9.466824-3.197404l-139.134097-105.796459a15.673549 15.673549 0 0 1 18.980668-24.936617l139.134097 105.796458a15.673549 15.673549 0 0 1-9.513844 28.134022z" fill="#1F87DD" /></svg>