<?xml version="1.0" encoding="utf-8"?>
<!-- Uploaded to: SVG Repo, www.svgrepo.com, Generator: SVG Repo Mixer Tools -->
<svg width="800px" height="800px" viewBox="0 -15.5 1055 1055" class="icon"  version="1.1" xmlns="http://www.w3.org/2000/svg"><path d="M268.409533 519.875959h172.409043v112.332328zM574.043745 525.110924h180.245818v117.55162zM464.3289 449.344986h62.694197l2.617483-130.607686-23.510324-36.566391-44.418839 15.673549zM271.027015 694.902484h478.043256v57.474906H265.79205z" fill="#C0EAFF" /><path d="M795.526671 296.543554a15.657876 15.657876 0 0 1-2.727198-31.096322l51.48761-9.1847a15.673549 15.673549 0 1 1 5.501416 30.861219l-51.48761 9.1847c-0.940413 0.156735-1.865152 0.235103-2.774218 0.235103zM728.255797 308.533819a15.657876 15.657876 0 0 1-2.727197-31.096322l15.877305-2.836912a15.673549 15.673549 0 1 1 5.501416 30.861218l-15.877306 2.836913c-0.924739 0.156735-1.849479 0.235103-2.774218 0.235103zM535.784611 342.905913a15.657876 15.657876 0 0 1-2.727197-31.096322l134.181256-23.949184a15.673549 15.673549 0 1 1 5.501415 30.861219l-134.181256 23.949184c-0.940413 0.156735-1.865152 0.235103-2.774218 0.235103zM239.679917 395.757121a15.657876 15.657876 0 0 1-2.727198-31.096322l217.92503-38.901749a15.673549 15.673549 0 1 1 5.501416 30.861218l-217.92503 38.90175c-0.940413 0.156735-1.865152 0.235103-2.774218 0.235103z" fill="#1F87DD" /><path d="M753.646947 768.003918H265.149434a15.673549 15.673549 0 0 1-15.673549-15.673549V459.799244a15.673549 15.673549 0 0 1 15.673549-15.673549h129.651601a15.673549 15.673549 0 0 1 0 31.347098h-113.978051V736.65682h457.150414V475.472793H460.410512a15.673549 15.673549 0 0 1-15.673549-15.673549v-141.061944c0-28.807984 23.44763-52.23994 52.23994-52.23994s52.23994 23.44763 52.23994 52.23994v125.388395h204.414431a15.673549 15.673549 0 0 1 15.673549 15.673549V752.330369a15.657876 15.657876 0 0 1-15.657876 15.673549zM476.084062 444.125695h41.801356v-125.388395c0-11.520059-9.372783-20.892841-20.892842-20.892842s-20.892841 9.372783-20.892841 20.892842v125.388395z" fill="#1F87DD" /><path d="M449.329313 658.32042H265.149434a15.673549 15.673549 0 0 1-15.673549-15.673549v-122.770912a15.673549 15.673549 0 0 1 15.673549-15.67355h184.179879a15.673549 15.673549 0 0 1 15.673549 15.67355v122.770912a15.673549 15.673549 0 0 1-15.673549 15.673549z m-168.506329-31.347099h152.83278v-91.423813h-152.83278v91.423813zM753.646947 658.32042H569.451395a15.673549 15.673549 0 0 1-15.673549-15.673549v-122.770912a15.673549 15.673549 0 0 1 15.673549-15.67355h184.179879a15.673549 15.673549 0 0 1 15.673549 15.67355v122.770912a15.657876 15.657876 0 0 1-15.657876 15.673549z m-168.522002-31.347099h152.832779v-91.423813h-152.832779v91.423813zM750.371175 710.544686H532.900678a15.673549 15.673549 0 0 1 0-31.347098h217.470497a15.673549 15.673549 0 0 1 0 31.347098zM466.288093 710.544686H423.185833a15.673549 15.673549 0 0 1 0-31.347098h43.10226a15.673549 15.673549 0 0 1 0 31.347098z" fill="#1F87DD" /><path d="M356.588921 710.544686h-92.082102a15.673549 15.673549 0 0 1 0-31.347098h92.082102a15.673549 15.673549 0 0 1 0 31.347098z" fill="#1F87DD" /></svg>