<?xml version="1.0" encoding="utf-8"?>
<!-- Uploaded to: SVG Repo, www.svgrepo.com, Generator: SVG Repo Mixer Tools -->
<svg width="800px" height="800px" viewBox="0 -15.5 1055 1055" class="icon"  version="1.1" xmlns="http://www.w3.org/2000/svg"><path d="M325.226149 721.798295m-48.321553 0a48.321553 48.321553 0 1 0 96.643106 0 48.321553 48.321553 0 1 0-96.643106 0Z" fill="#C0EAFF" /><path d="M743.19269 719.196486m-50.939036 0a50.939035 50.939035 0 1 0 101.878071 0 50.939035 50.939035 0 1 0-101.878071 0Z" fill="#C0EAFF" /><path d="M765.386436 623.838611l44.418839 13.071741-60.092389-381.40015-57.459232 2.617482z" fill="#C0EAFF" /><path d="M328.815392 786.780831c-36.7388 0-66.612585-29.889459-66.612585-66.612585s29.873785-66.612585 66.612585-66.612585 66.612585 29.889459 66.612585 66.612585-29.873785 66.612585-66.612585 66.612585z m0-101.878071c-19.435201 0-35.265486 15.814611-35.265486 35.265486s15.830285 35.265486 35.265486 35.265486 35.265486-15.814611 35.265486-35.265486-15.830285-35.265486-35.265486-35.265486zM736.312002 786.780831c-36.7388 0-66.612585-29.889459-66.612585-66.612585s29.873785-66.612585 66.612585-66.612585 66.612585 29.889459 66.612584 66.612585-29.873785 66.612585-66.612584 66.612585z m0-101.878071c-19.435201 0-35.265486 15.814611-35.265486 35.265486s15.830285 35.265486 35.265486 35.265486 35.265486-15.814611 35.265486-35.265486-15.830285-35.265486-35.265486-35.265486zM819.89904 682.285277a15.642202 15.642202 0 0 1-15.407099-12.962025l-70.546645-400.756984h-15.281711l60.374512 352.200328a15.673549 15.673549 0 1 1-30.876892 5.297659l-63.509222-370.522706a15.626529 15.626529 0 0 1 15.45412-18.306706h47.020648c7.601671 0 14.106194 5.470069 15.438446 12.962025l72.81931 413.719009a15.673549 15.673549 0 0 1-15.485467 18.3694z" fill="#1F87DD" /><path d="M700.090429 268.566268h-82.286134a15.673549 15.673549 0 1 1 0-31.347099h82.286134a15.673549 15.673549 0 1 1 0 31.347099zM231.843142 712.018a15.673549 15.673549 0 0 1-15.673549-15.673549v-94.041296a15.673549 15.673549 0 0 1 15.673549-15.67355h119.510814c6.31644 0 12.037286 3.808672 14.466686 9.639233l5.78354 13.871091h386.948586c44.105368 0 80.295593 34.607197 80.656085 77.14521l-15.673549 0.877719-15.67355-0.736657c-0.21943-25.265762-22.334808-45.9235-49.308986-45.923499H361.149924c-6.31644 0-12.037286-3.808672-14.466686-9.639233l-5.78354-13.871091h-93.383007v78.367746a15.673549 15.673549 0 0 1-15.673549 15.657876z" fill="#1F87DD" /><path d="M684.730351 712.018h-119.18167a15.673549 15.673549 0 1 1 0-31.347099h119.18167a15.673549 15.673549 0 1 1 0 31.347099zM513.308741 712.018h-13.07174a15.673549 15.673549 0 1 1 0-31.347099h13.07174a15.673549 15.673549 0 1 1 0 31.347099zM450.614544 712.018h-71.502732a15.673549 15.673549 0 1 1 0-31.347099h71.502732a15.673549 15.673549 0 1 1 0 31.347099zM709.228108 322.122786h-62.694197a15.673549 15.673549 0 1 1 0-31.347098h62.694197a15.673549 15.673549 0 1 1 0 31.347098z" fill="#1F87DD" /></svg>