<?xml version="1.0" encoding="utf-8"?>
<!-- Uploaded to: SVG Repo, www.svgrepo.com, Generator: SVG Repo Mixer Tools -->
<svg width="800px" height="800px" viewBox="0 -15.5 1055 1055" class="icon"  version="1.1" xmlns="http://www.w3.org/2000/svg"><path d="M426.535988 465.739663l-3.136294 73.70291 117.611026 7.840735 3.136294-86.248086zM558.260337 755.846861H283.834609c-32.931087 0-61.157734-26.658499-61.157733-61.157734 0-32.931087 26.658499-61.157734 61.157733-61.157733h274.425728c32.931087 0 61.157734 26.658499 61.157733 61.157733 0 32.931087-28.226646 61.157734-61.157733 61.157734zM622.554364 594.327718l83.111792 75.271057s148.973966-12.545176 125.451761-133.292496l-39.203675-94.088821s-122.315467 148.973966-169.359878 152.11026z" fill="#C0EAFF" /><path d="M561.396631 773.096478H286.970904c-43.908116 0-78.407351-34.499234-78.407351-78.407351s34.499234-78.407351 78.407351-78.407351h274.425727c43.908116 0 78.407351 34.499234 78.407351 78.407351s-34.499234 78.407351-78.407351 78.407351z m-274.425727-125.451761c-26.658499 0-47.04441 20.385911-47.044411 47.04441s20.385911 47.04441 47.044411 47.044411h274.425727c26.658499 0 47.04441-20.385911 47.04441-47.044411s-20.385911-47.04441-47.04441-47.04441H286.970904z" fill="#1F87DD" /><path d="M286.970904 647.644717c-9.408882 0-15.68147-6.272588-15.681471-15.68147v-54.885146c0-4.704441 1.568147-9.408882 6.272588-12.545176l64.294028-50.180704v-109.770291c0-9.408882 6.272588-15.68147 15.68147-15.681471h188.177642c9.408882 0 15.68147 6.272588 15.68147 15.681471v219.540581c0 9.408882-6.272588 15.68147-15.68147 15.681471s-15.68147-6.272588-15.68147-15.681471v-203.859111h-156.814702v101.929556c0 4.704441-1.568147 9.408882-6.272588 12.545176l-64.294027 50.180704v47.044411c0 7.840735-6.272588 15.68147-15.68147 15.68147z" fill="#1F87DD" /><path d="M490.830015 415.558959c-4.704441 0-9.408882-1.568147-12.545176-6.272588-4.704441-6.272588-3.136294-17.249617 3.136294-21.954059l131.724349-98.793261c6.272588-4.704441 17.249617-3.136294 21.954059 3.136294 4.704441 6.272588 3.136294 17.249617-3.136294 21.954058l-131.72435 98.793262c-3.136294 1.568147-6.272588 3.136294-9.408882 3.136294zM547.283308 450.058193c-4.704441 0-9.408882-1.568147-12.545176-6.272588-6.272588-6.272588-4.704441-17.249617 1.568147-21.954058l97.225115-79.975498c6.272588-6.272588 17.249617-4.704441 21.954058 1.568147 6.272588 6.272588 4.704441 17.249617-1.568147 21.954058l-97.225115 79.975498c-3.136294 3.136294-6.272588 4.704441-9.408882 4.704441z" fill="#1F87DD" /><path d="M752.710567 504.943338c-4.704441 0-9.408882-1.568147-12.545176-6.272588L602.168453 313.629403c-4.704441-6.272588-3.136294-15.68147 3.136294-21.954058l45.476264-37.635529c3.136294-3.136294 7.840735-4.704441 10.977029-3.136294 4.704441 0 7.840735 3.136294 10.977029 6.272588L799.754977 421.831547c4.704441 6.272588 4.704441 17.249617-3.136294 21.954058-6.272588 4.704441-17.249617 4.704441-21.954058-3.136294l-117.611026-152.11026-21.954058 17.249617 128.588055 172.496171c4.704441 6.272588 3.136294 17.249617-3.136294 21.954058-1.568147 3.136294-4.704441 4.704441-7.840735 4.704441z" fill="#1F87DD" /><path d="M707.234303 686.848392h-6.272588c-4.704441 0-7.840735-1.568147-10.977029-4.704441L606.872894 595.895865c-3.136294-3.136294-4.704441-9.408882-3.136294-14.113323 1.568147-4.704441 4.704441-9.408882 10.977029-10.977029 78.407351-25.090352 130.156202-72.134763 158.382849-144.269525 3.136294-6.272588 7.840735-9.408882 14.113323-9.408882s12.545176 3.136294 14.113323 9.408882l42.339969 101.929556c0 1.568147 1.568147 3.136294 1.568147 4.704441 0 3.136294 7.840735 68.998469-34.499234 114.474732-23.522205 25.090352-58.02144 39.203675-103.497703 39.203675z m-61.157733-95.656968l61.157733 64.294028c36.067381 0 62.725881-9.408882 79.975498-29.794794 28.226646-31.36294 26.658499-78.407351 26.658499-87.816232L787.209801 470.444104c-31.36294 54.885145-78.407351 95.656968-141.133231 120.74732z" fill="#1F87DD" /><path d="M294.811639 694.689127m-25.090353 0a25.090352 25.090352 0 1 0 50.180705 0 25.090352 25.090352 0 1 0-50.180705 0Z" fill="#1F87DD" /><path d="M553.555896 694.689127m-25.090352 0a25.090352 25.090352 0 1 0 50.180704 0 25.090352 25.090352 0 1 0-50.180704 0Z" fill="#1F87DD" /><path d="M545.715161 553.555896h-117.611026c-9.408882 0-15.68147-6.272588-15.68147-15.68147v-79.975498c0-9.408882 6.272588-15.68147 15.68147-15.68147h117.611026c9.408882 0 15.68147 6.272588 15.68147 15.68147v79.975498c0 9.408882-6.272588 15.68147-15.68147 15.68147z m-101.929556-31.36294h86.248086v-48.612558h-86.248086v48.612558zM428.104135 773.096478c-9.408882 0-15.68147-6.272588-15.68147-15.68147V721.347626c0-9.408882 6.272588-15.68147 15.68147-15.68147s15.68147 6.272588 15.68147 15.68147v36.067382c0 7.840735-7.840735 15.68147-15.68147 15.68147zM355.969372 773.096478c-9.408882 0-15.68147-6.272588-15.68147-15.68147V721.347626c0-9.408882 6.272588-15.68147 15.68147-15.68147s15.68147 6.272588 15.68147 15.68147v36.067382c0 7.840735-7.840735 15.68147-15.68147 15.68147zM500.238897 773.096478c-9.408882 0-15.68147-6.272588-15.68147-15.68147V721.347626c0-9.408882 6.272588-15.68147 15.68147-15.68147s15.68147 6.272588 15.681471 15.68147v36.067382c0 7.840735-6.272588 15.68147-15.681471 15.68147zM428.104135 682.143951c-9.408882 0-15.68147-6.272588-15.68147-15.68147v-36.067381c0-9.408882 6.272588-15.68147 15.68147-15.681471s15.68147 6.272588 15.68147 15.681471v36.067381c0 9.408882-7.840735 15.68147-15.68147 15.68147zM355.969372 682.143951c-9.408882 0-15.68147-6.272588-15.68147-15.68147v-36.067381c0-9.408882 6.272588-15.68147 15.68147-15.681471s15.68147 6.272588 15.68147 15.681471v36.067381c0 9.408882-7.840735 15.68147-15.68147 15.68147zM500.238897 682.143951c-9.408882 0-15.68147-6.272588-15.68147-15.68147v-36.067381c0-9.408882 6.272588-15.68147 15.68147-15.681471s15.68147 6.272588 15.681471 15.681471v36.067381c0 9.408882-6.272588 15.68147-15.681471 15.68147z" fill="#1F87DD" /></svg>