<?xml version="1.0" encoding="utf-8"?>
<!-- Uploaded to: SVG Repo, www.svgrepo.com, Generator: SVG Repo Mixer Tools -->
<svg width="800px" height="800px" viewBox="0 -15.5 1055 1055" class="icon"  version="1.1" xmlns="http://www.w3.org/2000/svg"><path d="M664.894334 382.627871v161.519143H815.436447c0 1.568147 15.68147-150.542113-150.542113-161.519143z" fill="#C0EAFF" /><path d="M304.220521 472.012251m-83.111792 0a83.111792 83.111792 0 1 0 166.223583 0 83.111792 83.111792 0 1 0-166.223583 0Z" fill="#C0EAFF" /><path d="M580.214395 393.6049h62.725881l-4.704441-73.702909h-51.748852z" fill="#C0EAFF" /><path d="M442.217458 575.509954h-37.635528c-32.931087 0-62.725881-15.68147-81.543645-43.908116l-28.226646-42.33997c-4.704441-7.840735-3.136294-17.249617 4.704441-21.954058 7.840735-4.704441 17.249617-3.136294 21.954058 4.704441l28.226646 42.33997c12.545176 18.817764 32.931087 29.794793 54.885146 29.794793h37.635528c9.408882 0 15.68147 6.272588 15.68147 15.68147s-7.840735 15.68147-15.68147 15.68147z" fill="#1F87DD" /><path d="M787.209801 661.75804H392.036753c-56.453292 0-101.929556-45.476263-101.929555-101.929556v-79.975498c0-9.408882 6.272588-15.68147 15.68147-15.68147s15.68147 6.272588 15.68147 15.68147v79.975498c0 39.203675 31.36294 70.566616 70.566615 70.566616h395.173048c12.545176 0 23.522205-10.977029 23.522205-23.522206v-62.72588c0-76.839204-62.725881-139.565084-139.565084-139.565084h-144.269525c-6.272588 0-10.977029 4.704441-10.977029 10.977029v144.269525c0 9.408882-6.272588 15.68147-15.681471 15.68147s-15.68147-6.272588-15.68147-15.68147v-144.269525c0-23.522205 18.817764-42.339969 42.33997-42.33997h144.269525c94.088821 0 170.928025 76.839204 170.928024 170.928025v62.72588c0 29.794793-23.522205 54.885145-54.885145 54.885146z" fill="#1F87DD" /><path d="M639.803982 404.58193h-50.180705c-9.408882 0-15.68147-6.272588-15.68147-15.681471v-72.134762c0-9.408882 6.272588-15.68147 15.68147-15.68147s15.68147 6.272588 15.68147 15.68147v56.453292h18.817764v-56.453292c0-9.408882 6.272588-15.68147 15.681471-15.68147s15.68147 6.272588 15.68147 15.68147v72.134762c0 7.840735-6.272588 15.68147-15.68147 15.681471zM818.572741 326.174579h-32.931087c-9.408882 0-15.68147-6.272588-15.68147-15.68147s6.272588-15.68147 15.68147-15.68147h32.931087c9.408882 0 15.68147 6.272588 15.68147 15.68147s-6.272588 15.68147-15.68147 15.68147zM741.733538 326.174579h-15.681471c-9.408882 0-15.68147-6.272588-15.68147-15.68147s6.272588-15.68147 15.68147-15.68147h15.681471c9.408882 0 15.68147 6.272588 15.68147 15.68147s-7.840735 15.68147-15.68147 15.68147z" fill="#1F87DD" /><path d="M679.007657 326.174579H495.534456c-9.408882 0-15.68147-6.272588-15.68147-15.68147s6.272588-15.68147 15.68147-15.68147h183.473201c9.408882 0 15.68147 6.272588 15.68147 15.68147s-7.840735 15.68147-15.68147 15.68147zM435.94487 326.174579h-45.476264c-9.408882 0-15.68147-6.272588-15.68147-15.68147s6.272588-15.68147 15.68147-15.68147h45.476264c9.408882 0 15.68147 6.272588 15.68147 15.68147s-7.840735 15.68147-15.68147 15.68147zM826.413476 567.669219h-155.246554c-9.408882 0-15.68147-6.272588-15.68147-15.68147V388.900459c0-9.408882 6.272588-15.68147 15.68147-15.68147s15.68147 6.272588 15.68147 15.68147v147.40582h139.565084c9.408882 0 15.68147 6.272588 15.68147 15.68147s-6.272588 15.68147-15.68147 15.68147zM497.102603 727.620214c-3.136294 0-6.272588 0-7.840735-1.568147-7.840735-4.704441-9.408882-14.113323-4.704441-21.954058l34.499235-56.453292c4.704441-7.840735 14.113323-9.408882 21.954058-4.704441 7.840735 4.704441 9.408882 14.113323 4.704441 21.954058L511.215926 721.347626c-3.136294 3.136294-9.408882 6.272588-14.113323 6.272588zM694.689127 727.620214c-4.704441 0-10.977029-3.136294-14.113323-7.840735l-34.499234-56.453292c-4.704441-7.840735-1.568147-17.249617 4.704441-21.954058 7.840735-4.704441 17.249617-1.568147 21.954058 4.704441l34.499234 56.453292c4.704441 7.840735 1.568147 17.249617-4.704441 21.954058-1.568147 1.568147-4.704441 3.136294-7.840735 3.136294z" fill="#1F87DD" /><path d="M757.415008 729.188361H435.94487c-9.408882 0-15.68147-6.272588-15.68147-15.68147s6.272588-15.68147 15.68147-15.68147h321.470138c9.408882 0 15.68147 6.272588 15.68147 15.68147s-7.840735 15.68147-15.68147 15.68147zM257.17611 551.987749c-3.136294 0-6.272588-1.568147-9.408882-3.136294-21.954058-17.249617-34.499234-43.908116-34.499234-72.134763 0-51.748851 42.339969-94.088821 94.088821-94.088821s94.088821 42.339969 94.088821 94.088821c0 6.272588 0 12.545176-1.568147 18.817764-1.568147 7.840735-9.408882 14.113323-18.817765 12.545176-7.840735-1.568147-14.113323-9.408882-12.545176-18.817764 1.568147-4.704441 1.568147-7.840735 1.568147-12.545176 0-34.499234-28.226646-62.725881-62.72588-62.72588s-62.725881 28.226646-62.725881 62.72588c0 18.817764 7.840735 36.067381 23.522205 48.612558 6.272588 4.704441 7.840735 15.68147 1.568147 21.954058-3.136294 3.136294-7.840735 4.704441-12.545176 4.704441z" fill="#1F87DD" /></svg>