<?xml version="1.0" encoding="utf-8"?>
<!-- Uploaded to: SVG Repo, www.svgrepo.com, Generator: SVG Repo Mixer Tools -->
<svg width="800px" height="800px" viewBox="0 -15.5 1055 1055" class="icon"  version="1.1" xmlns="http://www.w3.org/2000/svg"><path d="M378.140052 456.178654l5.219292 70.530972 13.056066 20.892841 73.148455 7.836775 39.183874-15.673549 2.617482-83.587039zM278.86379 461.397946l-23.510324 65.31168-23.510324 88.822004 18.291032 28.729616 33.964582 15.67355zM294.537339 746.139317h52.255614l-7.836775 36.566391h-57.474905zM602.789035 738.302542h60.076714l-7.836774 41.801356-47.020648 2.60181zM670.702524 667.77157l65.31168 23.510324 49.638131-91.423813-96.658779-33.964582z" fill="#C0EAFF" /><path d="M597.883214 392.841841a15.360078 15.360078 0 0 1-6.175379-1.285231l-36.56639-15.673549a15.657876 15.657876 0 1 1 12.350756-28.807984l36.566391 15.673549a15.673549 15.673549 0 1 1-6.175378 30.093215zM618.462584 336.025225a15.360078 15.360078 0 0 1-6.175378-1.285231l-36.566391-15.67355a15.657876 15.657876 0 1 1 12.350757-28.807983l36.56639 15.673549a15.704896 15.704896 0 1 1-6.175378 30.093215zM577.319517 449.658457a15.360078 15.360078 0 0 1-6.175379-1.285231l-36.56639-15.673549a15.657876 15.657876 0 1 1 12.350757-28.807984l36.56639 15.67355a15.704896 15.704896 0 1 1-6.175378 30.093214zM662.223134 799.006199h-58.77581a15.673549 15.673549 0 0 1-15.67355-15.673549v-83.869163l-26.754748-87.897265a15.704896 15.704896 0 0 1 10.438583-19.560589 15.642202 15.642202 0 0 1 19.56059 10.438584l27.428711 90.122908c0.438859 1.473314 0.673963 3.009321 0.673963 4.561003v70.530972h27.428711v-50.939035c0-0.736657 0.047021-1.473314 0.156736-2.209971l23.024444-162.095847a15.689223 15.689223 0 0 1 31.049301 4.404267l-22.867708 160.998699v65.499763a15.704896 15.704896 0 0 1-15.689223 15.689223z" fill="#1F87DD" /><path d="M717.09623 642.270705a15.062281 15.062281 0 0 1-1.865152-0.109714l-36.7388-4.372921a15.673549 15.673549 0 1 1 3.698958-31.127669l36.738799 4.372921a15.673549 15.673549 0 0 1-1.833805 31.237383z" fill="#1F87DD" /><path d="M736.672493 712.801678a15.610855 15.610855 0 0 1-6.175378-1.269558l-65.139271-27.883244a15.657876 15.657876 0 0 1-8.228614-20.579371 15.72057 15.72057 0 0 1 20.579371-8.244287l51.989163 22.256441 35.751366-65.985643-81.612172-32.63233a15.673549 15.673549 0 0 1 11.629774-29.121455l97.959683 39.1682c4.169164 1.661396 7.413589 5.015536 8.91825 9.231721a15.595182 15.595182 0 0 1-0.97176 12.789616l-50.939035 94.041296a15.626529 15.626529 0 0 1-13.761377 8.228614zM478.215664 567.993755c-2.507768 0-5.015536-0.031347-7.523303-0.078368l-35.845408-0.078367-8.181592 0.078367c-16.880413 0.282124-34.528829 0.548574-46.67583-11.426017-7.836775-7.711386-11.629774-18.729891-11.629774-33.698131v-66.643932a15.673549 15.673549 0 0 1 15.673549-15.673549h129.291109a15.673549 15.673549 0 0 1 15.673549 15.673549v66.643932c0 14.983913-3.792999 26.002418-11.629773 33.698131-10.360216 10.203481-24.63882 11.504385-39.152527 11.504385z m-43.368711-31.503834l36.331288 0.094041c9.545192 0.125388 21.394395 0.329145 24.184286-2.413726 1.097148-1.081475 2.288338-4.639371 2.288339-11.363324v-50.970382h-97.94401v50.970382c0 6.723953 1.175516 10.281848 2.288338 11.363324 2.789892 2.742871 14.639095 2.554789 24.184287 2.413726l8.667472-0.094041zM356.385165 718.977056a15.689223 15.689223 0 0 1-15.219016-19.497895c4.451288-17.695437 8.244287-30.359665 8.244287-30.359665 0.297797-0.956087 0.658289-1.865152 1.112822-2.742872l12.617207-24.184286a15.673549 15.673549 0 0 1 13.902438-8.43237h203.379977a15.673549 15.673549 0 1 1 0 31.347099H386.556748l-7.50763 14.403992a804.836759 804.836759 0 0 0-7.476283 27.616794 15.689223 15.689223 0 0 1-15.18767 11.849203z" fill="#1F87DD" /><path d="M342.216277 802.924586h-52.224267a15.657876 15.657876 0 0 1-15.673549-15.861632l3.902714-331.10373a15.673549 15.673549 0 0 1 15.673549-15.485466h266.49736l74.668789-208.991108a15.673549 15.673549 0 0 1 28.980393-1.300904l28.729615 62.239664 124.824148 49.935929a15.673549 15.673549 0 0 1 8.651799 20.595043l-26.127807 62.694198a15.673549 15.673549 0 0 1-18.964995 8.980944l-40.751228-12.225369c-15.892979 22.648279-46.816892 49.497069-84.527452 35.782713a15.673549 15.673549 0 0 1 10.705035-29.466272c29.873785 10.893117 52.710146-31.644896 52.945249-32.083756a15.72057 15.72057 0 0 1 18.3694-7.711386l38.713667 11.6141 14.576401-34.967689-115.858877-46.346685a15.673549 15.673549 0 0 1-8.416696-7.99351l-15.266037-33.07119L586.190746 461.429293a15.673549 15.673549 0 0 1-14.74881 10.407237h-262.061745l-3.542222 299.756631h21.519783c0.454533-4.764759 1.112822-9.93703 1.974867-15.563834a15.673549 15.673549 0 1 1 30.986607 4.686391c-1.614376 10.705034-2.4294 19.638957-2.4294 26.550993a15.673549 15.673549 0 0 1-15.673549 15.657875z" fill="#1F87DD" /><path d="M686.391747 565.877826a15.673549 15.673549 0 0 1-14.764484-20.955536l25.297109-70.985505a15.673549 15.673549 0 0 1 29.528967 10.532626l-25.297109 70.985505a15.689223 15.689223 0 0 1-14.764483 10.42291zM377.02723 665.12274a15.673549 15.673549 0 0 1-14.325624-22.005663l18.729891-42.428298a15.673549 15.673549 0 0 1 28.682595 12.648554l-18.729891 42.428298a15.673549 15.673549 0 0 1-14.356971 9.357109zM290.587605 681.454579a15.657876 15.657876 0 0 1-7.883795-2.131603l-47.020648-27.428711a15.642202 15.642202 0 0 1-7.774081-13.541947c0-166.594156 43.431405-193.066781 52.130225-196.671697a15.673549 15.673549 0 0 1 13.07174 28.463165c-2.131603 1.551681-32.506941 26.09646-33.807845 159.227588l39.199546 22.867709a15.673549 15.673549 0 0 1-7.915142 29.215496z" fill="#1F87DD" /></svg>