<!DOCTYPE svg PUBLIC "-//W3C//DTD SVG 1.1//EN" "http://www.w3.org/Graphics/SVG/1.1/DTD/svg11.dtd">
<!-- Uploaded to: SVG Repo, www.svgrepo.com, Transformed by: SVG Repo Mixer Tools -->
<svg width="800px" height="800px" viewBox="0 -15.5 1055 1055" class="icon" version="1.1" xmlns="http://www.w3.org/2000/svg" fill="#000000">
<g id="SVGRepo_bgCarrier" stroke-width="0"/>
<g id="SVGRepo_tracerCarrier" stroke-linecap="round" stroke-linejoin="round"/>
<g id="SVGRepo_iconCarrier">
<path d="M508.152144 203.411324s-282.123888 57.474905-159.352977 336.981311h70.530972s-60.076715-203.756142 88.822005-336.981311zM529.044985 206.028806l-5.219292 342.200603h112.332328s54.857423-250.77679-107.113036-342.200603zM440.238654 691.908836l5.219292 75.750264 20.892842 23.510324h109.714845l41.801356-20.892841-7.836775-83.602712z" fill="#C0EAFF"/>
<path d="M489.061761 690.623605a15.673549 15.673549 0 0 1-15.626529-14.639095c-0.736657-11.096873-22.852035-28.30643-46.268318-46.519094a1083.214669 1083.214669 0 0 1-31.613549-25.250088 15.689223 15.689223 0 0 1 20.124837-24.043225 1058.199685 1058.199685 0 0 0 30.720157 24.529105c32.867433 25.579233 56.61286 44.058347 58.28993 69.183047a15.673549 15.673549 0 0 1-15.626528 16.73935zM566.301012 690.623605c-0.344818 0-0.70531 0-1.050128-0.031347a15.673549 15.673549 0 0 1-14.592075-16.676656c1.67707-25.140373 25.422497-43.603814 58.289931-69.183047 9.623559-7.491957 20.030796-15.579508 30.720156-24.529105a15.673549 15.673549 0 0 1 20.124838 24.043225 1083.214669 1083.214669 0 0 1-31.613549 25.250088c-23.416283 18.212664-45.531661 35.422222-46.268318 46.519094a15.657876 15.657876 0 0 1-15.610855 14.607748zM527.665713 695.81155a15.673549 15.673549 0 0 1-15.67355-15.673549v-87.928612a15.673549 15.673549 0 0 1 31.347099 0v87.928612a15.673549 15.673549 0 0 1-15.673549 15.673549z" fill="#1F87DD"/>
<path d="M698.115562 559.984571h-340.899699a15.673549 15.673549 0 0 1 0-31.347098h340.899699a15.673549 15.673549 0 0 1 0 31.347098z" fill="#1F87DD"/>
<path d="M352.12196 558.323175c-4.357247 0-8.69882-1.818132-11.802183-5.34468-19.247119-21.98999-31.096322-48.666371-34.387767-61.236558a15.673549 15.673549 0 0 1 30.328318-7.915142c2.053235 7.868122 11.504385 30.077541 27.632467 48.509635a15.673549 15.673549 0 0 1-11.770835 25.986745zM703.977469 559.028485a15.673549 15.673549 0 0 1-11.990265-25.767315c15.23469-18.118623 24.15294-39.262241 26.080786-46.660157a15.673549 15.673549 0 0 1 30.328318 7.915143c-3.087689 11.864877-14.278603 37.350068-32.428573 58.916872a15.563835 15.563835 0 0 1-11.990266 5.595457z" fill="#1F87DD"/>
<path d="M733.130271 506.239971a15.673549 15.673549 0 0 1-14.936892-20.453982c6.551544-20.501003 9.874336-41.675968 9.874336-62.944975 0-112.332328-89.903479-203.724795-200.402002-203.724794S327.263711 310.508686 327.263711 422.841014c0 22.977423 2.617483 40.970658 8.761514 60.155083a15.673549 15.673549 0 0 1-29.858112 9.545191c-7.084444-22.162399-10.234828-43.650835-10.234828-69.700274 0-129.620253 103.962653-235.071893 231.749101-235.071893 127.786448 0 231.749101 105.45164 231.749101 235.071893 0 24.513431-3.824346 48.901474-11.363323 72.490166-2.131603 6.661258-8.306981 10.90879-14.936893 10.908791z" fill="#1F87DD"/>
<path d="M424.627799 558.683667a15.673549 15.673549 0 0 1-15.01526-11.237935c-11.958918-40.531799-17.977561-79.825387-17.899194-116.79929a15.673549 15.673549 0 0 1 15.67355-15.642202h0.031347a15.673549 15.673549 0 0 1 15.642202 15.704896c-0.078368 33.948908 5.517089 70.217501 16.613963 107.849693a15.673549 15.673549 0 0 1-15.046608 20.124838zM411.477691 397.026679a15.673549 15.673549 0 0 1-15.485467-18.275359c1.065801-6.300767 2.288338-12.429125 3.683285-18.3694a15.673549 15.673549 0 1 1 30.532074 7.115792c-1.23821 5.329007-2.351032 10.799076-3.291446 16.441553a15.673549 15.673549 0 0 1-15.438446 13.087414zM432.495921 328.517594a15.673549 15.673549 0 0 1-14.215909-22.25644c35.594631-76.92578 94.041296-111.109791 96.517717-112.52041a15.657876 15.657876 0 1 1 15.626528 27.177934c-1.206863 0.70531-52.694473 31.503834-83.68108 98.508258-2.664503 5.720846-8.338328 9.090659-14.247256 9.090658zM630.734973 558.683667a15.704896 15.704896 0 0 1-15.046607-20.124838c22.444523-76.063735 22.178072-144.823596-0.815025-204.398757a15.673549 15.673549 0 0 1 29.246843-11.284955c25.516538 66.173725 26.065113 141.720233 1.630049 224.554941a15.673549 15.673549 0 0 1-15.01526 11.253609z" fill="#1F87DD"/>
<path d="M589.450844 274.647605a15.642202 15.642202 0 0 1-12.225368-5.861907c-26.065113-32.444247-52.036184-47.741631-52.302635-47.882693a15.673549 15.673549 0 0 1 15.626529-27.177935c1.253884 0.720983 31.111995 18.071602 61.111169 55.421671a15.673549 15.673549 0 0 1-12.209695 25.500864z" fill="#1F87DD"/>
<path d="M527.665713 558.683667a15.673549 15.673549 0 0 1-15.67355-15.67355V207.329711a15.673549 15.673549 0 0 1 31.347099 0v335.680406a15.673549 15.673549 0 0 1-15.673549 15.67355z" fill="#1F87DD"/>
<path d="M566.849586 804.868106h-78.367747a64.07347 64.07347 0 0 1-63.995102-63.995102v-56.816616a15.673549 15.673549 0 0 1 15.67355-15.673549H615.186812a15.673549 15.673549 0 0 1 15.67355 15.673549v56.816616a64.07347 64.07347 0 0 1-64.010776 63.995102z m-111.01575-105.138169v41.143067c0 17.993235 14.654769 32.648003 32.648003 32.648004h78.367747a32.67935 32.67935 0 0 0 32.648003-32.648004v-41.143067h-143.663753z" fill="#1F87DD"/>
</g>
</svg>