<?xml version="1.0" encoding="utf-8"?>
<!-- Uploaded to: SVG Repo, www.svgrepo.com, Generator: SVG Repo Mixer Tools -->
<svg width="800px" height="800px" viewBox="0 -15.5 1055 1055" class="icon"  version="1.1" xmlns="http://www.w3.org/2000/svg"><path d="M237.720723 422.386482l2.601809 125.388394H775.840693l-33.964581-127.990204z" fill="#C0EAFF" /><path d="M339.598794 680.984372m-49.638131 0a49.638131 49.638131 0 1 0 99.276262 0 49.638131 49.638131 0 1 0-99.276262 0Z" fill="#C0EAFF" /><path d="M693.554559 684.90276m-45.719744 0a45.719743 45.719743 0 1 0 91.439487 0 45.719743 45.719743 0 1 0-91.439487 0Z" fill="#C0EAFF" /><path d="M519.844611 308.189001h-39.183873a15.673549 15.673549 0 1 1 0-31.347099h39.183873a15.673549 15.673549 0 1 1 0 31.347099zM421.884928 308.189001h-11.755162a15.673549 15.673549 0 1 1 0-31.347099h11.755162a15.673549 15.673549 0 1 1 0 31.347099z" fill="#1F87DD" /><path d="M689.636172 434.893974H240.338206a15.673549 15.673549 0 0 1-15.67355-15.673549v-126.6893a15.673549 15.673549 0 0 1 15.67355-15.673549h114.934137a15.673549 15.673549 0 1 1 0 31.347099h-99.260588v95.3422H689.636172c68.336675 0 95.890775-63.14873 105.482987-95.3422H578.620422a15.673549 15.673549 0 1 1 0-31.347099H815.024566a15.704896 15.704896 0 0 1 15.469794 18.228338c-7.99351 48.337226-47.694611 139.80806-140.858188 139.80806z" fill="#1F87DD" /><path d="M774.539788 560.86229h-121.470007a15.673549 15.673549 0 0 1-15.673549-15.673549v-123.084383a15.673549 15.673549 0 1 1 31.347098 0v107.410833h105.796458a15.673549 15.673549 0 1 1 0 31.347099z" fill="#1F87DD" /><path d="M794.131725 680.670901a15.673549 15.673549 0 0 1-15.673549-15.673549v-70.82877l-51.644345-182.205011a15.673549 15.673549 0 0 1 30.140235-8.557758l52.23994 184.289594c0.391839 1.394946 0.595595 2.836912 0.595595 4.278879v73.007392a15.642202 15.642202 0 0 1-15.657876 15.689223zM586.457196 680.670901h-148.898719a15.673549 15.673549 0 1 1 0-31.347098h148.898719a15.673549 15.673549 0 1 1 0 31.347098zM240.338206 680.670901a15.673549 15.673549 0 0 1-15.67355-15.673549V419.220425a15.673549 15.673549 0 1 1 31.347099 0v245.792601a15.657876 15.657876 0 0 1-15.673549 15.657875z" fill="#1F87DD" /><path d="M649.151394 560.86229h-407.512284a15.673549 15.673549 0 1 1 0-31.347099h407.512284a15.673549 15.673549 0 1 1 0 31.347099zM606.049133 604.074266h-35.265486a15.673549 15.673549 0 1 1 0-31.347099h35.265486a15.673549 15.673549 0 1 1 0 31.347099zM339.159934 747.158098a63.63461 63.63461 0 0 1-63.571916-63.556243 63.63461 63.63461 0 0 1 63.571916-63.571916 63.63461 63.63461 0 0 1 63.556243 63.571916 63.63461 63.63461 0 0 1-63.556243 63.556243z m0-95.78106c-17.773805 0-32.224817 14.451013-32.224817 32.224817s14.451013 32.209144 32.224817 32.209144c17.758131 0 32.209144-14.451013 32.209144-32.209144s-14.451013-32.224817-32.209144-32.224817zM691.375936 747.158098a63.63461 63.63461 0 0 1-63.571917-63.556243c0-35.046056 28.510186-63.571916 63.571917-63.571916s63.571916 28.510186 63.571916 63.571916a63.63461 63.63461 0 0 1-63.571916 63.556243z m0-95.78106c-17.773805 0-32.224817 14.451013-32.224818 32.224817a32.240491 32.240491 0 0 0 64.449635 0 32.271838 32.271838 0 0 0-32.224817-32.224817z" fill="#1F87DD" /></svg>