<?xml version="1.0" encoding="utf-8"?>
<!-- Uploaded to: SVG Repo, www.svgrepo.com, Generator: SVG Repo Mixer Tools -->
<svg width="800px" height="800px" viewBox="0 -15.5 1055 1055" class="icon"  version="1.1" xmlns="http://www.w3.org/2000/svg"><path d="M274.287114 345.068863h91.423813v-94.041297L274.287114 248.425757zM219.429691 512.258614l23.510324 172.409042 80.98523 31.347099L384.001959 695.121914l39.183874-15.673549 107.097362 31.347098L579.921326 697.723723l26.127807-15.673549 70.530972 7.836774 135.826979-177.628334z" fill="#C0EAFF" /><path d="M527.508977 729.509681c-30.95526 0-47.569222-12.005939-60.93876-21.645171-12.162674-8.792861-21.786234-15.72057-42.600707-15.72057-20.830147 0-30.438033 6.927709-42.632054 15.72057-13.369538 9.639233-29.999173 21.645172-60.970107 21.645171s-47.631916-11.974592-61.032801-21.598151c-6.833668-4.905821-12.726922-9.137679-20.187532-12.005939a15.642202 15.642202 0 0 1-9.952704-12.617207l-22.710973-174.148807a15.642202 15.642202 0 0 1 15.532488-17.695437h600.78282a15.673549 15.673549 0 0 1 12.335083 25.328456L690.576585 701.454028a15.673549 15.673549 0 0 1-21.316028 3.18173c-9.764621-6.833668-19.372507-12.491819-38.165092-12.491818-20.845821 0-30.453706 6.927709-42.647728 15.72057-13.322517 9.639233-29.967826 21.645172-60.93876 21.645171z m-103.523793-68.71284c30.95526 0 47.569222 12.005939 60.938759 21.645171 12.162674 8.792861 21.786234 15.72057 42.600708 15.72057 20.845821 0 30.453706-6.927709 42.647727-15.72057 13.385211-9.639233 30.014847-21.645172 60.985781-21.645171 19.34116 0 32.851759 4.529656 43.494099 10.234828l116.015613-148.24043h-550.768525l19.278466 147.80157c7.115791 3.698958 13.056067 7.962163 18.479115 11.864877 12.225368 8.777188 21.880275 15.704896 42.741769 15.704896 20.830147 0 30.453706-6.927709 42.632054-15.72057 13.353864-9.639233 29.9835-21.645172 60.954434-21.645171z" fill="#1F87DD" /><path d="M274.27144 522.712871a15.673549 15.673549 0 0 1-15.673549-15.673549v-156.704147a15.673549 15.673549 0 0 1 15.673549-15.673549h339.598794a15.673549 15.673549 0 0 1 15.673549 15.673549v109.652151a15.673549 15.673549 0 1 1-31.347098 0v-93.978601H289.94499v141.030597a15.673549 15.673549 0 0 1-15.67355 15.673549z" fill="#1F87DD" /><path d="M609.293558 439.486324h-70.405584a15.673549 15.673549 0 1 1 0-31.347099h70.405584a15.673549 15.673549 0 1 1 0 31.347099zM468.153246 439.486324h-23.369262a15.673549 15.673549 0 1 1 0-31.347099h23.369262a15.673549 15.673549 0 1 1 0 31.347099zM374.049255 439.486324h-23.369262a15.673549 15.673549 0 1 1 0-31.347099h23.369262a15.673549 15.673549 0 1 1 0 31.347099zM366.353543 366.008725h-92.082103a15.673549 15.673549 0 0 1-15.673549-15.67355v-100.937658a15.673549 15.673549 0 0 1 15.673549-15.673549h92.082103a15.673549 15.673549 0 0 1 15.673549 15.673549v100.937658a15.673549 15.673549 0 0 1-15.673549 15.67355z m-76.408553-31.347099h60.735003v-69.590559h-60.735003v69.590559zM734.838688 790.276032c-30.986607 0-47.631916-12.005939-61.017128-21.629498-12.178348-8.792861-21.817581-15.72057-42.694748-15.72057-20.845821 0-30.453706 6.927709-42.647728 15.72057-13.385211 9.639233-30.014847 21.645172-60.98578 21.645172-30.95526 0-47.569222-12.005939-60.93876-21.645172-12.162674-8.792861-21.786234-15.72057-42.600708-15.72057-20.830147 0-30.453706 6.927709-42.632054 15.72057-13.369538 9.639233-29.999173 21.645172-60.970107 21.645172s-47.600569-12.005939-60.970107-21.645172c-12.162674-8.792861-21.786234-15.72057-42.61638-15.72057a15.673549 15.673549 0 1 1 0-31.347099c30.95526 0 47.584896 12.005939 60.954433 21.645172 12.162674 8.792861 21.801907 15.72057 42.632054 15.72057s30.438033-6.927709 42.632055-15.72057c13.369538-9.639233 29.999173-21.645172 60.970106-21.645172 30.95526 0 47.569222 12.005939 60.93876 21.645172 12.162674 8.792861 21.786234 15.72057 42.600708 15.72057 20.845821 0 30.453706-6.927709 42.647727-15.72057 13.385211-9.639233 30.014847-21.645172 60.985781-21.645172 31.002281 0 47.64759 12.005939 61.032801 21.645172 12.178348 8.777188 21.817581 15.72057 42.679075 15.72057 20.877168 0 30.500727-6.943382 42.694748-15.72057 13.385211-9.639233 30.030521-21.629498 61.017128-21.629498a15.673549 15.673549 0 1 1 0 31.347098c-20.861494 0-30.485053 6.943382-42.679075 15.72057-13.385211 9.607886-30.046194 21.613825-61.032801 21.613825z" fill="#1F87DD" /><path d="M734.838688 729.509681c-30.986607 0-47.631916-12.005939-61.017128-21.629498-12.178348-8.792861-21.817581-15.72057-42.694748-15.72057a15.673549 15.673549 0 1 1 0-31.347099c31.002281 0 47.64759 12.005939 61.032801 21.645172 12.178348 8.777188 21.817581 15.72057 42.679075 15.72057 20.877168 0 30.500727-6.943382 42.694748-15.72057 13.385211-9.639233 30.030521-21.629498 61.017128-21.629498a15.673549 15.673549 0 1 1 0 31.347099c-20.861494 0-30.485053 6.943382-42.679075 15.72057-13.385211 9.607886-30.046194 21.613825-61.032801 21.613824zM773.22321 574.937137h-107.583242a15.673549 15.673549 0 1 1 0-31.347098h107.583242a15.673549 15.673549 0 1 1 0 31.347098zM615.672692 574.937137H599.043056a15.673549 15.673549 0 1 1 0-31.347098h16.64531a15.673549 15.673549 0 1 1-0.015674 31.347098zM539.436548 574.937137H234.13148a15.673549 15.673549 0 1 1 0-31.347098h305.305068a15.673549 15.673549 0 1 1 0 31.347098z" fill="#1F87DD" /></svg>