<!DOCTYPE svg PUBLIC "-//W3C//DTD SVG 1.1//EN" "http://www.w3.org/Graphics/SVG/1.1/DTD/svg11.dtd">
<!-- Uploaded to: SVG Repo, www.svgrepo.com, Transformed by: SVG Repo Mixer Tools -->
<svg width="800px" height="800px" viewBox="0 -15.5 1055 1055" class="icon" version="1.1" xmlns="http://www.w3.org/2000/svg" fill="#000000">
<g id="SVGRepo_bgCarrier" stroke-width="0"/>
<g id="SVGRepo_tracerCarrier" stroke-linecap="round" stroke-linejoin="round"/>
<g id="SVGRepo_iconCarrier">
<path d="M257.265639 322.608666l41.519232 2.60181a44.857698 44.857698 0 0 1 42.067807 44.77933v143.318935l20.892841 39.183874h339.598794l-7.836775 49.638131-347.435568 5.219292-49.638131-28.729616V369.644988l-44.403165-2.617483 5.234965-44.418839z" fill="#C0EAFF"/>
<path d="M754.932178 723.58508H272.986209a15.673549 15.673549 0 1 1 0-31.347099h481.945969c19.435201 0 35.265486-15.814611 35.265486-35.265486s-15.830285-35.265486-35.265486-35.265486a15.673549 15.673549 0 1 1 0-31.347099c36.7388 0 66.612585 29.889459 66.612585 66.612585s-29.873785 66.612585-66.612585 66.612585z" fill="#1F87DD"/>
<path d="M317.342354 723.600753a15.673549 15.673549 0 0 1-14.74881-21.01823l34.011602-94.009949a15.673549 15.673549 0 0 1 29.481946 10.673687l-34.011602 94.009949c-2.304012 6.363461-8.322655 10.344543-14.733136 10.344543zM664.777922 723.600753a15.673549 15.673549 0 0 1-14.874198-10.736381l-31.300078-94.009949a15.689223 15.689223 0 0 1 29.76407-9.905683l31.300078 94.009949a15.689223 15.689223 0 0 1-14.889872 20.642064z" fill="#1F87DD"/>
<path d="M688.288246 621.754029H344.316532c-18.996342 0-36.707453-7.554651-49.85756-21.253333s-19.936755-31.70759-19.153078-50.672585l5.015536-163.192996h-3.432507c-23.776774 0-43.102261-19.34116-43.102261-43.10226s19.325486-43.102261 43.102261-43.102261h71.831877c69.120353 0 129.792662 48.023755 144.259348 114.197481 5.156598 23.573018 6.629911 66.471523 7.053097 89.590008h78.571503a15.673549 15.673549 0 1 1 0 31.347098h-94.072643a15.673549 15.673549 0 0 1-15.67355-15.673549c0-0.689636-0.078368-69.230068-6.488849-98.555278-11.363323-51.895122-59.136302-89.558661-113.648906-89.558661h-71.831877a11.755162 11.755162 0 0 0 0 23.510324h19.591937a15.704896 15.704896 0 0 1 15.673549 16.159429l-5.532763 179.524834a37.444109 37.444109 0 0 0 10.438584 27.836224 37.397089 37.397089 0 0 0 27.224955 11.6141h332.890515l35.955122-101.878071h-24.325349l-26.692054 40.045919a15.673549 15.673549 0 0 1-26.080786-17.39764l31.347099-47.020648c2.91528-4.357247 7.805428-6.974729 13.040393-6.974729h54.857422a15.704896 15.704896 0 0 1 14.780157 20.892841l-47.020648 133.225169a15.626529 15.626529 0 0 1-14.74881 10.438584z" fill="#1F87DD"/>
<path d="M406.211379 562.915525h-35.28116a43.133608 43.133608 0 0 1-43.086587-43.102261v-90.122908a15.673549 15.673549 0 1 1 31.347099 0v90.122908c0 6.473176 5.266313 11.755162 11.739488 11.755162h35.28116a15.673549 15.673549 0 1 1 0 31.347099z" fill="#1F87DD"/>
</g>
</svg>