<?xml version="1.0" encoding="utf-8"?>
<!-- Uploaded to: SVG Repo, www.svgrepo.com, Generator: SVG Repo Mixer Tools -->
<svg width="800px" height="800px" viewBox="0 -15.5 1055 1055" class="icon"  version="1.1" xmlns="http://www.w3.org/2000/svg"><path d="M273.801234 502.180521h104.47988l-31.347099 146.281236zM383.516079 515.236588h143.663754v128.005878zM532.414798 512.634779h141.061944l31.347099 133.225169zM681.313517 512.634779h99.260588l39.183873 130.607687zM281.638008 653.696723s75.750264 91.423813 164.572269 31.347099l49.63813 39.183873 54.857423-2.617483 52.23994-28.729616s151.516202 54.857423 159.352976-39.183873H281.638008z" fill="#C0EAFF" /><path d="M527.179833 269.694764m-36.566391 0a36.566391 36.566391 0 1 0 73.132781 0 36.566391 36.566391 0 1 0-73.132781 0Z" fill="#C0EAFF" /><path d="M829.381538 666.784137H225.965561a15.704896 15.704896 0 0 1-14.874198-20.642065l47.051995-141.061944c2.131603-6.394808 8.134572-10.720708 14.874198-10.720708h509.311986a15.673549 15.673549 0 0 1 14.874199 10.720708l47.051995 141.061944a15.704896 15.704896 0 0 1-14.874198 20.642065z m-581.66109-31.347099h559.921877l-36.597738-109.714846H284.318185l-36.597737 109.714846z" fill="#1F87DD" /><path d="M696.156368 525.722192H359.190731a15.704896 15.704896 0 0 1-15.030934-20.14051l16.284818-54.747708a15.673549 15.673549 0 1 1 30.046194 8.949596l-10.281849 34.607197h294.929178l-32.632329-109.714845H412.84129l-5.156598 17.303598a15.673549 15.673549 0 1 1-30.046194-8.949596l8.47939-28.510187a15.673549 15.673549 0 0 1 15.015261-11.206587h253.065128c6.927709 0 13.056067 4.561003 15.01526 11.206587l41.958091 141.061945a15.673549 15.673549 0 0 1-15.01526 20.14051z" fill="#1F87DD" /><path d="M527.681386 382.685381a15.673549 15.673549 0 0 1-15.673549-15.673549v-47.004975a15.673549 15.673549 0 0 1 31.347098 0v47.004975a15.673549 15.673549 0 0 1-15.673549 15.673549z" fill="#1F87DD" /><path d="M527.681386 327.843632c-30.24995 0-54.857423-24.607472-54.857423-54.857423s24.607472-54.857423 54.857423-54.857423 54.857423 24.607472 54.857423 54.857423-24.623146 54.857423-54.857423 54.857423z m0-78.367747c-12.962025 0-23.510324 10.548299-23.510324 23.510324s10.548299 23.510324 23.510324 23.510324 23.510324-10.548299 23.510324-23.510324-10.548299-23.510324-23.510324-23.510324z" fill="#1F87DD" /><path d="M588.41639 445.363905h-121.470008a15.673549 15.673549 0 0 1 0-31.347099h121.470008a15.673549 15.673549 0 0 1 0 31.347099z" fill="#1F87DD" /><path d="M351.369629 660.875209a15.673549 15.673549 0 0 1-15.250363-19.372507l31.347099-129.306783a15.673549 15.673549 0 1 1 30.46938 7.397916l-31.347099 129.306782a15.673549 15.673549 0 0 1-15.219017 11.974592zM703.993143 660.875209a15.673549 15.673549 0 0 1-15.219017-11.974592l-31.347098-129.306782a15.673549 15.673549 0 1 1 30.46938-7.397916l31.347098 129.306783a15.673549 15.673549 0 0 1-15.250363 19.372507zM531.599773 660.875209a15.673549 15.673549 0 0 1-15.673549-15.67355v-129.306782a15.673549 15.673549 0 0 1 31.347099 0v129.306782a15.673549 15.673549 0 0 1-15.67355 15.67355z" fill="#1F87DD" /><path d="M367.482038 726.437665a107.818346 107.818346 0 0 1-98.743361-64.559349 15.673549 15.673549 0 1 1 28.713943-12.570187 76.455574 76.455574 0 0 0 99.307608 39.983225 15.673549 15.673549 0 0 1 12.005939 28.964719 107.410834 107.410834 0 0 1-41.284129 8.181592zM685.545375 726.437665a107.238425 107.238425 0 0 1-41.284129-8.197266 15.689223 15.689223 0 0 1 12.005939-28.964719 75.938347 75.938347 0 0 0 29.27819 5.814887 76.737698 76.737698 0 0 0 69.292762-44.152389 15.673549 15.673549 0 0 1 28.416145 13.244149 108.194511 108.194511 0 0 1-97.708907 62.255338z" fill="#1F87DD" /><path d="M526.50587 743.145669a107.457854 107.457854 0 0 1-104.667963-82.066704 15.673549 15.673549 0 1 1 30.438033-7.46061c8.385349 34.246705 38.901749 58.164542 74.214256 58.164542s65.844581-23.917836 74.22993-58.180215a15.657876 15.657876 0 1 1 30.438033 7.460609 107.442181 107.442181 0 0 1-104.652289 82.082378z" fill="#1F87DD" /></svg>