<?xml version="1.0" encoding="utf-8"?>
<!-- Uploaded to: SVG Repo, www.svgrepo.com, Generator: SVG Repo Mixer Tools -->
<svg width="800px" height="800px" viewBox="0 -15.5 1055 1055" class="icon"  version="1.1" xmlns="http://www.w3.org/2000/svg"><path d="M271.528569 655.138689h449.313639v75.750265H268.92676zM331.620957 292.029572v73.148454h141.061944v154.118011l143.679427 2.617483 88.822005 67.913489 15.673549 65.31168h67.913489v-75.750264s-18.291032-122.770912-117.55162-122.770912h-122.770912v-156.735493l-216.827882-7.852448z" fill="#C0EAFF" /><path d="M724.227695 742.894892H263.691794a15.673549 15.673549 0 0 1-15.673549-15.673549V549.342231a15.673549 15.673549 0 0 1 31.347099 0v162.205563h429.188802v-47.710285c0-68.885249-51.456263-124.933862-114.699034-124.933862h-116.329084a15.673549 15.673549 0 0 1-15.673549-15.673549v-143.961551H279.365344v52.522064a15.673549 15.673549 0 0 1-31.347099 0v-68.195613a15.673549 15.673549 0 0 1 15.673549-15.673549h213.818561a15.673549 15.673549 0 0 1 15.673549 15.673549v143.961551h100.655534c80.530697 0 146.046133 70.107786 146.046133 156.28096v63.383834a15.657876 15.657876 0 0 1-15.657876 15.673549z" fill="#1F87DD" /><path d="M263.691794 515.37765a15.673549 15.673549 0 0 1-15.673549-15.673549v-23.510325a15.673549 15.673549 0 0 1 31.347099 0v23.510325a15.673549 15.673549 0 0 1-15.67355 15.673549zM716.923821 675.247853h-70.530972a15.673549 15.673549 0 0 1 0-31.347098h70.530972a15.673549 15.673549 0 0 1 0 31.347098zM591.535426 675.247853h-28.729616a15.673549 15.673549 0 0 1 0-31.347098h28.729616a15.673549 15.673549 0 0 1 0 31.347098zM492.274838 675.247853H273.284007a15.673549 15.673549 0 0 1 0-31.347098h218.990831a15.673549 15.673549 0 0 1 0 31.347098zM476.554268 591.833224a15.673549 15.673549 0 0 1-13.77705-23.134159l25.187394-46.566115a15.673549 15.673549 0 1 1 27.569773 14.905545l-25.187393 46.566115a15.626529 15.626529 0 0 1-13.792724 8.228614zM537.728131 591.833224a15.673549 15.673549 0 0 1-13.77705-23.134159l25.187394-46.566115a15.673549 15.673549 0 1 1 27.569774 14.905545l-25.187394 46.566115a15.673549 15.673549 0 0 1-13.792724 8.228614z" fill="#1F87DD" /><path d="M791.655304 676.078551h-24.544778a15.673549 15.673549 0 0 1 0-31.347098h8.871229v-47.710285c0-68.885249-51.456263-124.933862-114.714708-124.933861h-116.329083a15.673549 15.673549 0 0 1-15.673549-15.67355v-143.961551H346.792953v8.589105a15.673549 15.673549 0 0 1-31.347099 0v-24.262654a15.673549 15.673549 0 0 1 15.67355-15.673549h213.81856a15.673549 15.673549 0 0 1 15.673549 15.673549v143.961551h100.655534c80.54637 0 146.061806 70.107786 146.061807 156.28096v63.383834a15.673549 15.673549 0 0 1-15.67355 15.673549z" fill="#1F87DD" /></svg>