<!DOCTYPE svg PUBLIC "-//W3C//DTD SVG 1.1//EN" "http://www.w3.org/Graphics/SVG/1.1/DTD/svg11.dtd">
<!-- Uploaded to: SVG Repo, www.svgrepo.com, Transformed by: SVG Repo Mixer Tools -->
<svg width="800px" height="800px" viewBox="-20.33 0 389.263 389.263" xmlns="http://www.w3.org/2000/svg" fill="#000000">
<g id="SVGRepo_bgCarrier" stroke-width="0"/>
<g id="SVGRepo_tracerCarrier" stroke-linecap="round" stroke-linejoin="round"/>
<g id="SVGRepo_iconCarrier">
<defs>
<style>.a{fill:#ffffff;}.b{fill:#85807f;}.c{fill:#211715;}.d{fill:#64a4d6;}.e{fill:#7a7473;}.f{fill:#bdbdbd;}</style>
</defs>
<path class="a" d="M70.914,143.056a41.291,41.291,0,0,1-5.991,1.834c-.06.013-.12.024-.179.032a36.944,36.944,0,0,0,2.069,7.558,18.183,18.183,0,0,0,1.547,2.736c1.771-4.9,3.411-8.658,4.4-12.882C72.2,142.556,71.58,142.8,70.914,143.056Z"/>
<path class="a" d="M91.053,341.15H2v46.113H346.333V251.93H232s0,21.145,0,45.11H117c0,15.289,0,30.577,0,44.11Z"/>
<path class="a" d="M127.64,24.79a29.5,29.5,0,0,1,.521,6.432c.214,3.973.5,9.484,4.178,11.366a3.709,3.709,0,0,1,1.729,1.656c.918,1.957-.766,2.886-1.8,4.051a6.087,6.087,0,0,0-1.321,2.612,37.706,37.706,0,0,1-.671,5.748,16,16,0,0,1-1.2,3.871,7.592,7.592,0,0,1-4.086,3.955,18.29,18.29,0,0,1-9.776,1.006,1.322,1.322,0,0,0-1.542.816,36.3,36.3,0,0,1-1.305,4.183l-1.483,3.68-.749,1.86A45.148,45.148,0,0,0,99.6,69.1c-3.93-1.949-7.024-3.024-10.642-4.714a2.674,2.674,0,0,0-.36-.136c-.706-3.293-3.928-5.788-7.746-9.623-3.034-3.047-6.685-8.73-7.893-12.738a31.536,31.536,0,0,1-1.06-14c.764-4.584,2.736-9.483,6.561-12.681l4.911-5.176c3.514-4.056,10.15-7.144,15.962-7.842a26.106,26.106,0,0,1,15.32,2.668c5.524,2.874,12.039,8.777,13.1,20.428"/>
<path class="a" d="M152.355,98.987c-.676,1.165-1.551,2.659-2.089,3.757a.283.283,0,0,1,.116.037c2.842,1.443,12.824,8.581,16.444,11.1q1.238-2.481,2.4-5a1.717,1.717,0,0,0-.435-2.025c-3.213-2.73-9.255-6.342-13.956-8.844a1.715,1.715,0,0,0-2.292.66C152.48,98.772,152.419,98.878,152.355,98.987Z"/>
<path class="a" d="M176.012,99.67c-1.167,1.055-2.263,1.962-3.347,2.92,0,0-1.862,1.647-4.36,3.863a96.973,96.973,0,0,0-13.473-8.444,1.665,1.665,0,0,0-1.177-.153l-.507-2.123-1.325-5.905c-.506-1.658.372-5.36,1.466-7.465,1.516-2.915,3.665-4.937,7.769-.905,1.1-2.233,2.012-4.376,3.287-7.121a3.329,3.329,0,0,1,4.546-1.6,3.96,3.96,0,0,1,2.384,3.919,5.909,5.909,0,0,1,4.707,4.406,3.966,3.966,0,0,0,1.365,2.382c4.175,3.969,6.617,7.968,1.582,13.363C177.892,97.919,176.93,98.84,176.012,99.67Z"/>
<path class="b" d="M101.086,2.038a25.844,25.844,0,0,1,13.569,2.825A23.775,23.775,0,0,1,127.3,22.1l-3.244,1.74c-2.825,1.515-6.746,4.554-8.959,6.082-.528.365-1.213-.106-1.19-.821A4.711,4.711,0,0,0,113.7,27.5c-.2-.663-.709-.914-1.073-.675-3.418,2.237-8.653,8.557-10.922,12.607a4.981,4.981,0,0,0-2.714-1.759,3.786,3.786,0,0,0-3.192.574,5.551,5.551,0,0,0-1.712,4.63,9.629,9.629,0,0,0,2.786,6.382l-.171.284c-2.3,3.188-6.051,8.714-9.555,11.628-1.447-2.006-3.735-3.972-6.289-6.538-3.034-3.047-6.685-8.73-7.893-12.738a31.536,31.536,0,0,1-1.06-14c.764-4.584,2.736-9.483,6.561-12.681l4.911-5.176c3.514-4.056,10.15-7.144,15.962-7.842Q100.2,2.092,101.086,2.038Z"/>
<path class="c" d="M151.878,103.976c-.13.31.138-.269.165-.324.118-.238.242-.474.368-.709.278-.521.569-1.036.863-1.549.283-.5.6-.983.863-1.492.44-.86.1-.164.1-.168.011.009-.6.468-.414,0-.015.037,6.045,3.422,6.574,3.744a67.85,67.85,0,0,1,6.026,4.019c.322.247.625.523.951.769.128.1.014-.24.012-.2a2.02,2.02,0,0,1-.282.644q-.987,2.115-2.031,4.2a2.048,2.048,0,0,0,.717,2.736,2.019,2.019,0,0,0,2.737-.717,49.819,49.819,0,0,0,2.625-5.526,3.88,3.88,0,0,0-1.5-4.425,68.238,68.238,0,0,0-7.514-5.128q-2.064-1.248-4.173-2.419c-1.425-.793-2.886-1.86-4.6-1.554-1.694.3-2.457,1.6-3.25,2.974a35.644,35.644,0,0,0-2.1,4.054,2.013,2.013,0,0,0,1.4,2.461,2.052,2.052,0,0,0,2.46-1.4Z"/>
<path class="c" d="M70.09,154.211a19.459,19.459,0,0,1-1.345-2.3c-.046-.094-.083-.194-.134-.285-.124-.224.155.393.062.153-.061-.156-.125-.311-.185-.468q-.219-.582-.41-1.174a40.315,40.315,0,0,1-1.236-4.713,2.014,2.014,0,0,0-2.461-1.4,2.052,2.052,0,0,0-1.4,2.461,26.357,26.357,0,0,0,3.651,9.737,2,2,0,1,0,3.454-2.018Z"/>
<path class="d" d="M281.4,123.24c-19.25,8.865-40.031,18.218-62.652,23.944a1.453,1.453,0,0,0-.106,2.79l20.908,6.934a1.46,1.46,0,0,1,.624,2.361c-32.738,36.818-120.435,78.07-174.291,96a1.456,1.456,0,0,0,.7,2.818c35.954-6.083,104.538-25.927,126.123-36.275,22.489-10.78,45.055-25.277,60.84-41.227a1.448,1.448,0,0,1,2.325.342c2.748,5.332,6.27,12.485,9.574,19.923a1.455,1.455,0,0,0,2.732-.192c6.006-21.671,11.539-51.209,15.266-75.888A1.45,1.45,0,0,0,281.4,123.24Z"/>
<path class="c" d="M119,387.263V297.04l-2,2H232c2.574,0,2.578-4,0-4H117a2.029,2.029,0,0,0-2,2v90.223c0,2.574,4,2.578,4,0Z"/>
<path class="c" d="M4,387.263V341.15l-2,2H117c2.574,0,2.578-4,0-4H2a2.029,2.029,0,0,0-2,2v46.113c0,2.574,4,2.578,4,0Z"/>
<path class="c" d="M346.669,385.263H2.336c-2.574,0-2.578,4,0,4H346.669c2.574,0,2.578-4,0-4Z"/>
<path class="c" d="M234,387.263V251.93l-2,2H346.333l-2-2V387.263c0,2.574,4,2.578,4,0V251.93a2.029,2.029,0,0,0-2-2H232a2.029,2.029,0,0,0-2,2V387.263c0,2.574,4,2.578,4,0Z"/>
<path class="e" d="M49.411,329.756c-3.373-2.027-6.882-4.131-10.885-6.392a8.752,8.752,0,0,1-4.738-7.655,9.891,9.891,0,0,1,.859-4.468c1.841-4.156,4.628-8.047,8.967-9.2l5.545-1.48c5.642,1.836,11.325,3.646,16.233,4.938.015,2.307.03,4.011.03,4.011.032,3.731,2.389,7.031,4.977,9.72s5.554,5.116,7.357,8.382,2.105,7.764-.512,10.423a8.336,8.336,0,0,1-6.714,2.1,18.376,18.376,0,0,1-6.905-2.167C58.51,335.233,54.092,332.568,49.411,329.756Z"/>
<path class="c" d="M63.422,309.506C63.647,316.852,69.9,320.92,74.208,326c1.817,2.14,3.259,4.851,2.913,7.748-.339,2.847-2.688,4.384-5.438,4.434-3.442.063-6.483-1.6-9.4-3.216-2.977-1.644-5.91-3.367-8.829-5.113-2.984-1.784-5.956-3.588-8.954-5.349-1.646-.967-3.319-1.891-4.963-2.862a7.829,7.829,0,0,1-2.817-2.624c-1.711-2.823-.834-6.048.629-8.753,1.518-2.807,3.624-5.385,6.8-6.3,2.471-.708,1.42-4.569-1.063-3.857a14.659,14.659,0,0,0-7.948,6.1c-2.005,2.9-3.508,6.279-3.337,9.868a10.907,10.907,0,0,0,4.947,8.536c1.692,1.152,3.572,2.075,5.339,3.111q2.684,1.572,5.347,3.178c3.322,1.994,6.638,4,10,5.924,3.436,1.965,6.945,4.193,10.875,4.989,3.625.734,7.8.37,10.469-2.494,2.4-2.576,2.82-6.3,1.957-9.609-1.06-4.064-4.1-7.133-7.007-9.986-2.83-2.775-6.174-5.977-6.3-10.217-.079-2.568-4.079-2.579-4,0Z"/>
<path class="e" d="M156.789,294.867c-3.764-.079-7.539-.107-11.3.066a8.827,8.827,0,0,1-8.152-3.992,10.166,10.166,0,0,1-1.613-5.052c.051-6.128.4-12.225,8.4-14.548,6,.193,13.509.444,19.795.58a18.777,18.777,0,0,0,7.1,3.5c3.584,1.035,7.368,1.655,10.562,3.583s5.7,5.672,4.766,9.284a8.333,8.333,0,0,1-4.764,5.176,18.521,18.521,0,0,1-7.064,1.575C168.7,295.248,162.761,294.992,156.789,294.867Z"/>
<path class="c" d="M160.129,270.5c3.537,5.737,10.3,6.625,16.205,8.43,2.823.864,5.675,2.154,7.27,4.772a5,5,0,0,1-.976,6.765c-2.567,2.217-6.295,2.539-9.528,2.616-3.687.088-7.375.01-11.061-.083-3.73-.094-7.461-.206-11.192-.19-1.789.008-3.573.079-5.36.127a7.885,7.885,0,0,1-4.07-.828c-2.9-1.588-3.753-4.7-3.67-7.8.086-3.246.424-6.617,2.9-8.971,1.87-1.777-.962-4.6-2.828-2.828-2.6,2.469-3.6,5.784-3.93,9.263-.353,3.673-.233,7.279,1.888,10.45a10.907,10.907,0,0,0,8.492,4.7c2.012.132,4.072-.1,6.089-.112,2.193-.016,4.386.014,6.579.061,4.272.091,8.544.249,12.817.247,4.139,0,8.314,0,12.189-1.644,3.23-1.368,6.028-4.039,6.516-7.646.469-3.473-1.338-6.908-3.931-9.134-3.256-2.794-7.474-3.737-11.516-4.8-3.5-.924-7.419-2.151-9.43-5.411-1.349-2.188-4.81-.181-3.454,2.018Z"/>
<path class="f" d="M85.5,181.117c-.771-.212-1.524-.431-2.255-.652-4.848-1.47-9.431-2.828-13.086-4.12-.326,4.741-.214,9.119-.746,15.418a181.851,181.851,0,0,1-3.25,20.25c-5.944,28.374-14.428,53.356-23.938,83.879a2.336,2.336,0,0,0,1.562,2.913c7.379,2.4,15.293,5.042,21.809,6.744a4.238,4.238,0,0,0,1.581.272c1.335-.173,1.937-1.7,2.415-2.953,16.637-43.779,28.705-76.226,34.42-90.656,7.6.774,20.026,1.987,26.265,3.137,3.69.679,5.565,1.352,7.164,3.317,1.809,2.237,2.179,5.6,2.139,8.181-.224,14.5-.309,25.46-.675,41.556a2.773,2.773,0,0,0,2.67,2.858c6.708.209,16.272.544,23.711.688a2.753,2.753,0,0,0,2.808-2.658c.479-13.738,1.294-31.942,1.278-45.111-.009-6.881-.321-10.9-2.014-17.028-1.056-3.815-4.323-7.609-7.25-10.222a42.521,42.521,0,0,0-8.278-5.333c-10.9-5.4-19.4-6.542-32.772-12.615a13.987,13.987,0,0,1-4.172,2.788C107.2,185.485,95,183.737,85.5,181.117Z"/>
<path class="c" d="M118.933,181.106c7.227,3.2,14.73,5.514,22.163,8.158,6.738,2.4,13.89,5.3,19.033,10.432a25.517,25.517,0,0,1,3.769,4.642,18.017,18.017,0,0,1,2.071,5.405,51.6,51.6,0,0,1,1.363,10.862c.209,7.84-.088,15.71-.334,23.546-.251,8-.577,16-.861,24.007-.017.488.132,1.243-.287,1.611-.486.428-1.54.161-2.129.148q-3.019-.066-6.037-.154c-4.071-.114-8.141-.247-12.211-.378l-2.65-.085c-.53-.016-1.35.151-1.739-.309-.466-.549-.147-1.887-.132-2.554q.036-1.662.07-3.325.129-6.3.225-12.61c.123-7.941.3-15.885.338-23.826.018-3.6-.69-7.551-3.392-10.149-2.27-2.184-5.433-2.787-8.431-3.291-6.909-1.164-13.913-1.817-20.88-2.524l-4.87-.489a2.014,2.014,0,0,0-2,2,2.044,2.044,0,0,0,2,2c7.172.72,14.362,1.38,21.5,2.384,2.887.406,6.435.57,8.981,2.087,2.891,1.721,3.124,5.592,3.081,8.6q-.175,12.328-.352,24.658-.1,6.641-.246,13.282c-.044,2.042-.421,4.278.845,6.04,1.283,1.786,3.152,1.968,5.182,2.032,4.1.13,8.207.267,12.311.389q3.188.094,6.375.175c1.84.045,4.043.431,5.747-.421a5.068,5.068,0,0,0,2.679-4.722q.1-2.944.214-5.887.232-6.216.458-12.432c.288-8.192.554-16.389.584-24.587a86.084,86.084,0,0,0-.579-12.067c-.53-3.844-1.31-7.9-3.333-11.258-4.217-7.011-11.323-11.34-18.657-14.49-7.009-3.01-14.373-5.039-21.5-7.743q-3.213-1.22-6.355-2.611a2.064,2.064,0,0,0-2.737.718,2.014,2.014,0,0,0,.718,2.736Z"/>
<path class="c" d="M68.274,174.938c-.384,4.506-.359,9.033-.624,13.546a131.648,131.648,0,0,1-1.811,14.767c-1.666,9.617-3.942,19.147-6.4,28.589-5.345,20.524-12,40.677-18.324,60.911-.756,2.416-1.749,4.922.379,6.964a7.577,7.577,0,0,0,3.072,1.445q1.983.647,3.966,1.294c4.966,1.616,9.94,3.226,14.979,4.606,2.3.63,4.606,1.391,6.429-.649,1.572-1.76,2.175-4.565,2.993-6.718q2.91-7.666,5.812-15.335,9.438-24.936,18.848-49.884c4.663-12.3,9.539-24.513,14.207-36.809q1.13-2.976,2.255-5.953a2.018,2.018,0,0,0-1.4-2.461,2.045,2.045,0,0,0-2.461,1.4c-4.7,12.406-9.6,24.734-14.323,37.133Q87.337,250.207,78.9,272.672q-5.519,14.6-11.06,29.2c-.181.476-.666,1.93-.968,2a15.887,15.887,0,0,1-2.7-.776c-2.38-.659-4.745-1.371-7.1-2.105-2.5-.778-4.99-1.582-7.479-2.392l-3.527-1.151c-.552-.18-1.873-.267-1.928-.951a7.39,7.39,0,0,1,.61-1.972l.591-1.887q.621-1.983,1.244-3.964,1.222-3.885,2.449-7.767,2.331-7.39,4.64-14.79c2.96-9.54,5.835-19.107,8.439-28.751,2.557-9.471,4.863-19.016,6.764-28.642q1.279-6.479,2.089-13.033c.6-4.809.815-9.613.971-14.453.068-2.1.16-4.2.338-6.3.219-2.564-3.782-2.55-4,0Z"/>
<path class="c" d="M102.881,37.758a6.7,6.7,0,0,0-6.357-2.033,5.981,5.981,0,0,0-4.183,4.543,11.379,11.379,0,0,0,3.006,10.293,14.83,14.83,0,0,0,5.383,3.316,2.014,2.014,0,0,0,2.46-1.4,2.046,2.046,0,0,0-1.4-2.46c-.13-.049-.259-.1-.388-.153.161.069.133.056-.086-.04-.181-.086-.362-.169-.541-.259a13.03,13.03,0,0,1-1.172-.666c-.157-.1-.308-.211-.463-.314-.48-.318.256.237-.176-.131a11.679,11.679,0,0,1-.914-.851c-.121-.129-.233-.264-.351-.394-.144-.178-.148-.181-.013-.007-.053-.07-.1-.141-.154-.213a11.261,11.261,0,0,1-.595-.974c-.03-.057-.288-.6-.2-.4s-.139-.371-.161-.435a10.366,10.366,0,0,1-.325-1.171q-.072-.332-.124-.667c.055.352-.02-.194-.026-.264a6.431,6.431,0,0,1,.007-1.38c-.044.346.052-.208.066-.267.047-.2.11-.39.168-.585q.128-.339.023-.082c.055-.119.115-.237.18-.352.037-.064.348-.51.125-.232a2.608,2.608,0,0,1,.4-.4c-.318.253.534-.226.209-.106.057-.021.614-.142.325-.1a3.183,3.183,0,0,1,.683,0,3.791,3.791,0,0,1,.9.3s.507.343.265.155a5.912,5.912,0,0,1,.6.57,2,2,0,0,0,2.828-2.829Z"/>
<path class="c" d="M124.425,36.894c.512,1.214.607,4.13-1.623,4.63-2.988.317-3.551-3.158-2.736-4.913C120.733,35.174,123.088,34.343,124.425,36.894Z"/>
<path class="c" d="M125.712,25.322c.881,4.614.026,9.478,1.644,13.978a9,9,0,0,0,3.839,4.941c.431.252,1.259.6,1.054,1.2-.107.311-.533.576-.764.8a10.6,10.6,0,0,0-1.291,1.49c-1.507,2.171-1.227,4.732-1.631,7.222-.39,2.4-.927,5.212-2.91,6.855-1.583,1.312-4.076,1.727-6.061,1.9a13.93,13.93,0,0,1-3.2-.02c-1.4-.206-2.628-.388-3.769.677a4.593,4.593,0,0,0-1.133,2.383,33.385,33.385,0,0,1-1.078,3.277c-.471,1.207-.969,2.405-1.453,3.607a2.013,2.013,0,0,0,1.4,2.46,2.049,2.049,0,0,0,2.46-1.4c.457-1.135.922-2.268,1.372-3.407.309-.778.585-1.569.834-2.369q.228-.732.423-1.474a1.421,1.421,0,0,0,.093-.362c-.119-.658-.506.612-.642.365.111.2,1.509.247,1.652.261a15.259,15.259,0,0,0,1.67.068,22.862,22.862,0,0,0,4.307-.494,12.345,12.345,0,0,0,6.2-2.872,13.248,13.248,0,0,0,3.439-7.012,40.513,40.513,0,0,0,.644-4.372,5.866,5.866,0,0,1,.731-3.126c.548-.771,1.349-1.33,1.914-2.1a4.143,4.143,0,0,0,.728-3.571,5.349,5.349,0,0,0-2.232-3.01,6.511,6.511,0,0,1-2.06-1.657c-1.253-1.832-1.462-4.321-1.617-6.471a75.167,75.167,0,0,0-.7-8.838c-.482-2.525-4.338-1.456-3.857,1.064Z"/>
<path class="c" d="M94.971,48.529c-.658.912-1.307,1.831-1.965,2.743q-.55.762-1.108,1.517-.3.409-.611.817L91,53.979c-.375.492.235-.3-.147.192a35.775,35.775,0,0,1-5.221,5.658,2.007,2.007,0,0,0,0,2.828,2.055,2.055,0,0,0,2.828,0A36.162,36.162,0,0,0,93.8,56.85c1.6-2.06,3.1-4.188,4.625-6.3a2.008,2.008,0,0,0-.717-2.736,2.056,2.056,0,0,0-2.737.717Z"/>
<path class="c" d="M130.664,51.371A23.022,23.022,0,0,1,128,51.21l.531.072a10.436,10.436,0,0,1-1.957-.457,2,2,0,0,0-2.258,2.938,2.2,2.2,0,0,0,1.2.919,16.64,16.64,0,0,0,5.154.689,2.056,2.056,0,0,0,1.414-.586,2,2,0,0,0-1.414-3.414Z"/>
<path class="c" d="M77.048,13.8c-6.791,5.83-8.378,15.766-7.032,24.187A30.861,30.861,0,0,0,74.5,49.63a52.914,52.914,0,0,0,8.187,9.58c1.383,1.36,2.987,2.823,3.726,4.664.584,1.453.232,3.2-.1,4.811-.514,2.513,3.341,3.588,3.857,1.064.711-3.479.832-6.63-1.328-9.633-2.368-3.29-5.726-5.685-8.28-8.813-5.3-6.488-8.177-14.845-6.668-23.24.783-4.354,2.576-8.509,5.984-11.436,1.956-1.68-.884-4.5-2.828-2.828Z"/>
<path class="f" d="M83.949,69.379c.521-1.342,1.13-2.276,1.544-3.52a2.523,2.523,0,0,1,3.467-1.471c3.618,1.69,6.712,2.765,10.642,4.714,4.75,2.356,9.632,5.393,13.3,9.818a11.29,11.29,0,0,1,1,2.122,11.574,11.574,0,0,0,2.42,3.753c.292.3.579.6.832.863.468.491,1.024.89,1.541,1.346a28.657,28.657,0,0,1,5.8,7.426c2.877,4.961,3.7,6.327,6.543,10.953,2.241,3.356,4.933,7.672,8.124,7.887,3.854.259,5.467-3.424,7.349-6.331.938-1.449,1.558-2.843,2.2-3.837a1.26,1.26,0,0,1,1.668-.321c2.945,1.5,13.561,9.109,16.814,11.355a2.157,2.157,0,0,1,.492,2.438c-3.032,7.563-5.553,11.459-13.24,19.117-4.3,4.287-12.019,8.106-18.325,7.3a29.991,29.991,0,0,1-8.687-2.4c-1.169,8.9-2.014,15.573-3.523,25.863a34.2,34.2,0,0,1-1.654,6.46c-1.78,4.892-2.829,6.664-7.37,8.858-8.312,4.016-21.9,1.648-31.641-1.305-7.634-2.314-14.612-4.353-18.344-6.291a3.718,3.718,0,0,1-1.974-2.047,4.16,4.16,0,0,1,.333-2.536l4.8-13.537c1.884-5.317,3.655-9.257,4.7-13.72a48.777,48.777,0,0,1-7.839,2.556,2.509,2.509,0,0,1-2.88-1.63,192.121,192.121,0,0,1-6.61-24.65c-.99-5.22-1.3-8.98.93-13.99,4.47-10.05,11.01-15.18,17.55-21.58l.681-.5c1.89-2.686,3.99-5.139,5.684-7.975Z"/>
<path class="c" d="M72.5,81.626c-3.739,3.649-7.687,7.1-11.034,11.132-3.638,4.376-7.2,9.727-8.363,15.382-1.108,5.382.3,10.928,1.5,16.178,1.259,5.5,2.715,10.97,4.452,16.34.87,2.692,1.719,6.2,5.2,6.284a15.819,15.819,0,0,0,5.045-1.188c1.353-.45,2.679-.974,4.006-1.5a2.061,2.061,0,0,0,1.4-2.461,2.016,2.016,0,0,0-2.461-1.4,55.148,55.148,0,0,1-6.929,2.346c-1.058.261-1.239.3-1.576-.687-.4-1.187-.8-2.376-1.179-3.572-1.538-4.894-2.859-9.861-4.013-14.86-1.032-4.468-2.49-9.434-1.66-14.039.9-5,4-9.832,7.167-13.708,3.4-4.153,7.447-7.69,11.276-11.427,1.846-1.8-.984-4.628-2.828-2.828Z"/>
<path class="c" d="M155.077,95.2c-.419-1.866-.822-3.736-1.257-5.6-.04-.173-.074-.348-.122-.518-.058-.206,0,.361-.007-.031-.007-.352-.016-.7.009-1.048a13.812,13.812,0,0,1,2.062-5.889c.081-.111.083-.119,0-.023l.132-.16c.132-.154.275-.289.415-.434.232-.242-.037,0,.119-.1a2.828,2.828,0,0,1,.4-.225c-.462.186.4-.04-.127.033a2.356,2.356,0,0,1,.385-.01c-.327-.008.23.053.3.073a1.82,1.82,0,0,1,.433.185,2.047,2.047,0,0,0,2.736-.717A2.021,2.021,0,0,0,159.839,78a5.3,5.3,0,0,0-6.283.6,12.109,12.109,0,0,0-3.012,5.21,13.423,13.423,0,0,0-.817,5.57,68.2,68.2,0,0,0,1.492,6.878,2,2,0,0,0,3.858-1.063Z"/>
<path class="c" d="M161.393,85.142c1.59-2.9,2.9-5.932,4.283-8.936.527-1.148,1.125-2.36,2.563-1.556a2.025,2.025,0,0,1,1.036,2.007,2.027,2.027,0,0,0,1.469,1.929,4.353,4.353,0,0,1,2.729,1.649c.709.978.7,2.267,1.344,3.3,1.288,2.049,3.53,3.292,4.53,5.591.947,2.175-.04,4.237-1.507,5.913a69.205,69.205,0,0,1-6.589,6.14c-1.936,1.7.9,4.524,2.829,2.828,4.416-3.885,11.773-9.105,9.125-15.944a13.729,13.729,0,0,0-2.3-3.767,23.137,23.137,0,0,0-1.595-1.732,5.029,5.029,0,0,1-1.214-1.346c-.326-.727-.4-1.533-.756-2.269a7.542,7.542,0,0,0-1.359-1.923,8.265,8.265,0,0,0-4.171-2.294l1.468,1.928a6.075,6.075,0,0,0-2.007-4.737,5.728,5.728,0,0,0-6.559-.825c-2.037,1.187-2.735,3.633-3.651,5.659-.975,2.156-1.982,4.293-3.119,6.369-1.237,2.259,2.216,4.279,3.454,2.019Z"/>
<path class="c" d="M106.462,85.706a18.564,18.564,0,0,0-8.673,4.145,23.18,23.18,0,0,0-5.849,8.095,2.061,2.061,0,0,0,.717,2.737,2.017,2.017,0,0,0,2.737-.718,20.014,20.014,0,0,1,5.058-7.141,10.912,10.912,0,0,1,1.482-1.141,14,14,0,0,1,1.809-1.015c.039-.018.493-.213.293-.131s.262-.1.3-.113q.464-.171.936-.312c.74-.224,1.494-.4,2.251-.549a2.02,2.02,0,0,0,1.4-2.46,2.04,2.04,0,0,0-2.46-1.4Z"/>
<path class="c" d="M78.551,73.556c-3.2,5.294-7.674,9.64-9.715,15.61-2.493,7.292-1.478,15.264-.085,22.662,1.293,6.86,2.95,13.769,3,20.784a38.6,38.6,0,0,1-1.184,10.262,97.585,97.585,0,0,1-3.2,9.277c-1.408,3.748-2.712,7.534-4.049,11.307-.661,1.866-1.351,3.725-1.985,5.6-.651,1.929-.7,3.809.7,5.42,1.806,2.077,5.262,2.975,7.768,3.856,3.48,1.223,7.02,2.276,10.551,3.344A91.093,91.093,0,0,0,100,185.761c6.035.447,12.379-.049,17.682-3.211,4.944-2.948,6.983-9.03,7.994-14.429.724-3.866,1.134-7.822,1.667-11.719q.756-5.538,1.474-11.082a2.009,2.009,0,0,0-2-2,2.052,2.052,0,0,0-2,2c-.857,6.547-1.736,13.09-2.688,19.624A38.4,38.4,0,0,1,120.4,172.2c-.692,1.967-1.456,4.112-2.949,5.573-3.623,3.547-9.527,4.183-14.326,4.129a68.427,68.427,0,0,1-17.958-2.954c-3.481-1-6.947-2.07-10.4-3.169a68.277,68.277,0,0,1-7.853-2.841,7.3,7.3,0,0,1-1.632-.865c-.565-.476-.444-.86-.232-1.532.589-1.868,1.308-3.7,1.962-5.549,1.271-3.587,2.509-7.188,3.833-10.756,2.241-6.032,4.5-11.887,4.848-18.388.355-6.6-.768-13.188-2.019-19.641-1.524-7.858-3.487-16.034-1.552-24.007,1.579-6.512,6.518-11.06,9.884-16.621,1.336-2.208-2.122-4.221-3.454-2.019Z"/>
<path class="c" d="M104.116,39.284A48.511,48.511,0,0,1,108.7,33.22c.852-.968,1.738-1.909,2.673-2.8.383-.364.774-.719,1.177-1.059.168-.142.347-.294.511-.418.639-.482.291.059-.371-.2l-.883-.514q-.1-.495.06.161a1.063,1.063,0,0,1,.046.42,7.2,7.2,0,0,0,.1,1.108,2.9,2.9,0,0,0,1.859,1.984c1.531.494,2.717-.585,3.87-1.418a69.9,69.9,0,0,1,7.328-4.921c2.26-1.233.244-4.688-2.019-3.454a48.926,48.926,0,0,0-4.847,3.134,29.681,29.681,0,0,1-4.346,3.055l1.01-.273.591.2.514.882c-.344-.837-.148-2-.673-2.92a2.772,2.772,0,0,0-3.016-1.377c-1.562.433-3.054,2.1-4.179,3.206a52.486,52.486,0,0,0-7.442,9.246c-1.382,2.18,2.078,4.189,3.454,2.019Z"/>
<path class="c" d="M84.787,11.452c5.129-5.781,13.943-8.328,21.46-7.23a22.788,22.788,0,0,1,15.7,9.711,25.025,25.025,0,0,1,3.8,11.358,2.056,2.056,0,0,0,2,2,2.014,2.014,0,0,0,2-2c-.762-7.862-4.053-15.014-10.431-19.84a28.259,28.259,0,0,0-24.681-4.32A27.021,27.021,0,0,0,81.959,8.623c-1.7,1.92,1.115,4.759,2.828,2.829Z"/>
<path class="c" d="M100.706,113.431c3.015,6.506,7.6,12.473,12.2,17.925,4.762,5.64,10.345,10.327,17.549,12.487a23.037,23.037,0,0,0,12.734.51,29.537,29.537,0,0,0,11.37-6.051,60.864,60.864,0,0,0,8.846-9.62,42.947,42.947,0,0,0,5.125-8.964c.805-1.865,1.921-3.9.9-5.921-.6-1.186-1.912-1.864-2.971-2.608-2.643-1.854-5.281-3.716-7.943-5.543a70.594,70.594,0,0,0-6.821-4.431,3.492,3.492,0,0,0-5.057,1.457c-1.041,1.8-2.049,3.607-3.161,5.369-.768,1.217-1.7,2.757-3.19,3.151-1.541.408-2.759-.65-3.753-1.7-2.763-2.912-4.734-6.656-6.787-10.078-2.145-3.575-4.049-7.344-6.637-10.628a66.126,66.126,0,0,0-4.836-4.855,12.568,12.568,0,0,1-1.91-2.457c-.584-1.008-.91-2.133-1.477-3.145a19.117,19.117,0,0,0-4.649-4.86,44.668,44.668,0,0,0-5.706-3.985A110.306,110.306,0,0,0,92.126,63.63c-2.093-.908-4.128-2.15-6.392-.94a4.507,4.507,0,0,0-1.94,2.083,14.472,14.472,0,0,0-1.246,3.157c-.536,2.912,2.185,3.845,4.331,4.732,2.246.927,4.489,1.858,6.723,2.812,1.816.775,3.626,1.565,5.42,2.388a2.061,2.061,0,0,0,2.737-.718,2.016,2.016,0,0,0-.718-2.736c-3.676-1.686-7.411-3.244-11.146-4.8L88.163,68.9a5.991,5.991,0,0,0-1.553-.64c.235.005-.3-.116-.3-.113l.143.548.1-.211c.419-.38.543-1.4.8-1.877.237-.44.338-.5.884-.355a24.724,24.724,0,0,1,3.025,1.328,93.184,93.184,0,0,1,11.436,5.472,37.489,37.489,0,0,1,5.043,3.524c1.4,1.183,3.158,2.564,3.931,4.261a19.583,19.583,0,0,0,3.466,5.605c1.441,1.536,3.136,2.772,4.507,4.387,2.5,2.942,4.217,6.52,6.182,9.82a107.548,107.548,0,0,0,5.89,9.237c2.188,2.946,5,5.94,9.016,5.29,3.632-.587,5.48-3.972,7.255-6.809.515-.823,1.011-1.647,1.473-2.5a6.96,6.96,0,0,0,.639-1.17l.174-.3-.717.2c0-.022.043-.03.127.077a4.937,4.937,0,0,0,1.153.678c.494.3.982.616,1.467.931,2.56,1.663,5.066,3.408,7.568,5.155q1.785,1.246,3.565,2.5l1.381.97a5.861,5.861,0,0,1,1.249.872c-.208-.279-.129-.217-.207-.042-.139.315-.235.664-.367.987q-.486,1.188-1.023,2.355a42.97,42.97,0,0,1-2.193,4.175,48.159,48.159,0,0,1-6.364,8.085,33.472,33.472,0,0,1-9.244,7.428,18.379,18.379,0,0,1-11.046,2.146,30.079,30.079,0,0,1-17.491-9.667,94.162,94.162,0,0,1-11.994-16.113c-.711-1.21-1.38-2.443-1.97-3.716a2.018,2.018,0,0,0-2.737-.718,2.046,2.046,0,0,0-.717,2.736Z"/>
</g>
</svg>