<!DOCTYPE svg PUBLIC "-//W3C//DTD SVG 1.1//EN" "http://www.w3.org/Graphics/SVG/1.1/DTD/svg11.dtd">
<!-- Uploaded to: SVG Repo, www.svgrepo.com, Transformed by: SVG Repo Mixer Tools -->
<svg width="800px" height="800px" viewBox="0 -6.41 359.214 359.214" xmlns="http://www.w3.org/2000/svg" fill="#000000">
<g id="SVGRepo_bgCarrier" stroke-width="0"/>
<g id="SVGRepo_tracerCarrier" stroke-linecap="round" stroke-linejoin="round"/>
<g id="SVGRepo_iconCarrier">
<defs>
<style>.a{fill:#ffffff;}.b{fill:#211715;}.c{fill:#b3b3b3;}.d{fill:#3d8dcc;}.e{fill:#85807f;}.f{fill:#64a4d6;}.g{fill:#ffda71;}</style>
</defs>
<path class="a" d="M87.352,131.647a4.745,4.745,0,0,0-5.376-2.207s3.593-16.823-19.522-16.823c-21.968,0-19.371,16.894-19.371,16.894a4.743,4.743,0,0,0-5.443,2.037,6.476,6.476,0,0,0,.225,6.277,10.208,10.208,0,0,0,5.42,4.368,22.279,22.279,0,0,0,4.431,7.62,18.932,18.932,0,0,0,3.988,3.4v1.432c.436.323,9.317,6.732,9.988,7.166h2.127c.671-.434,9.552-6.843,9.988-7.166V152.9a19.692,19.692,0,0,0,3.568-3.236,22.243,22.243,0,0,0,4.341-7.649c.1-.044.2-.08.2-.08a10.285,10.285,0,0,0,5.016-4.022A6.477,6.477,0,0,0,87.352,131.647Z"/>
<path class="a" d="M105.146,261.764c.821-.229,1.606-1,2.3-2.529.341-5.613-2.543-14.817-4.646-21.471H89.154q.061,3.121.122,6.386L90.369,248c-.662,3.993.825,9.88,5.932,6.04l1.191-.851C98.979,256.709,102.277,262.564,105.146,261.764Z"/>
<path class="b" d="M100.725,237.815c1.168,3.7,2.336,7.4,3.279,11.159a35.2,35.2,0,0,1,1.446,10.262l.273-1.01a7.762,7.762,0,0,1-.652,1.177c.091-.129-.477.643-.231.293-.108.153-.355.057-.157.123.251.084-.142.05-.163.04.682.328,0-.256-.012-.023.008-.115.451.249.05,0-.19-.12-.239-.072-.006.03a3.746,3.746,0,0,1-.415-.22c-.118-.071-.232-.149-.344-.23-.172-.124.2.177-.076-.072s-.507-.48-.743-.739c-.113-.125-.222-.253-.331-.381.006.008-.367-.467-.206-.254a24.993,24.993,0,0,1-2.371-3.945q-.251-.5-.485-1.015c-.067-.146-.132-.293-.2-.44-.249-.558.138.351-.081-.185-.2-.484-.384-.973-.54-1.473-.764-2.449-4.627-1.4-3.857,1.063a28.974,28.974,0,0,0,2.8,6.088c1.2,2.017,2.749,4.317,4.961,5.316,2.724,1.23,5.169-.4,6.39-2.887.738-1.506.415-3.542.219-5.162a55.318,55.318,0,0,0-1.011-5.714c-.995-4.35-2.345-8.609-3.687-12.862-.773-2.446-4.636-1.4-3.858,1.064Z"/>
<path class="b" d="M88.441,247.472a13.843,13.843,0,0,0-.2,3.075,10.95,10.95,0,0,0,.518,2.912,6.238,6.238,0,0,0,1.589,2.636,4.428,4.428,0,0,0,3.073,1.2,6.957,6.957,0,0,0,3.888-1.52,2.188,2.188,0,0,0,.92-1.195,2.047,2.047,0,0,0-.2-1.541,2.022,2.022,0,0,0-1.2-.92,1.947,1.947,0,0,0-1.541.2,7.781,7.781,0,0,1-1.6.948l.477-.2a4.143,4.143,0,0,1-.995.276l.531-.072a2.843,2.843,0,0,1-.708,0l.532.072a2.451,2.451,0,0,1-.577-.162l.478.2a2.568,2.568,0,0,1-.505-.3l.405.313a3.125,3.125,0,0,1-.532-.54l.313.4a4.569,4.569,0,0,1-.547-.955l.2.477a7.85,7.85,0,0,1-.518-1.978l.071.532a11.514,11.514,0,0,1,0-3.019l-.071.532c.014-.105.03-.209.047-.313a2.172,2.172,0,0,0-.2-1.541,2,2,0,0,0-2.736-.717,1.937,1.937,0,0,0-.919,1.2Z"/>
<path class="a" d="M20.224,261.764c-.821-.229-1.606-1-2.3-2.529-.341-5.613,2.543-14.817,4.646-21.471h13.65q-.062,3.121-.121,6.386L35,248c.662,3.993-.824,9.88-5.932,6.04l-1.191-.851C26.391,256.709,23.093,262.564,20.224,261.764Z"/>
<path class="b" d="M20.788,236.751c-1.185,3.753-2.371,7.51-3.322,11.331-.868,3.493-1.767,7.275-1.559,10.9.16,2.778,3.086,5.422,5.9,4.725,2.372-.588,4.069-2.86,5.326-4.8a28.714,28.714,0,0,0,3.333-6.939c.768-2.463-3.092-3.516-3.858-1.063-.155.5-.342.989-.54,1.473-.141.344.055-.124-.043.1-.064.145-.128.291-.194.435q-.231.51-.479,1.011a25.039,25.039,0,0,1-2.418,4.039c.067-.088-.351.427-.47.561-.235.263-.483.511-.742.751-.111.1-.306.26-.074.084a4.622,4.622,0,0,1-.414.28c-.113.068-.229.128-.346.187-.19.1.335-.044-.006-.015-.421.036-.1.168-.019.021,0,0-.535.041-.142.009.347-.029-.1.023-.138-.067q.345.151.146.043a1.68,1.68,0,0,1-.2-.125c.334.441-.384-.485-.171-.2a7.093,7.093,0,0,1-.713-1.266l.273,1.01a35.194,35.194,0,0,1,1.446-10.262c.943-3.762,2.111-7.462,3.279-11.159.777-2.461-3.084-3.514-3.857-1.064Z"/>
<path class="b" d="M33.072,248.535c.017.1.033.208.047.313l-.071-.532a11.514,11.514,0,0,1,0,3.019l.072-.532a7.935,7.935,0,0,1-.518,1.978l.2-.477a4.565,4.565,0,0,1-.546.955l.312-.4a3.089,3.089,0,0,1-.532.54l.405-.313a2.532,2.532,0,0,1-.5.3l.477-.2a2.456,2.456,0,0,1-.576.162l.531-.072a2.843,2.843,0,0,1-.708,0l.532.072a4.15,4.15,0,0,1-1-.276l.478.2a7.728,7.728,0,0,1-1.6-.948,2.014,2.014,0,0,0-1.541-.2,2.043,2.043,0,0,0-1.2.92,2.017,2.017,0,0,0-.2,1.541,2.321,2.321,0,0,0,.919,1.195c1.789,1.333,4.408,2.222,6.4.764,1.816-1.326,2.443-3.512,2.639-5.657a13.549,13.549,0,0,0-.173-3.406,2,2,0,0,0-.92-1.2,2,2,0,0,0-2.736.717,2.3,2.3,0,0,0-.2,1.541Z"/>
<path class="a" d="M54.231,176.408c-1.909-4.688-3.713-9.53-5.3-14.227-1.357-.627-.941-2.6-.194-3.546.922-1.165,2.076-2.843,3.02-4,.436.323,9.317,6.732,9.988,7.166h2.128c.671-.434,9.552-6.843,9.988-7.166.944,1.152,2.1,2.83,3.02,4a3.479,3.479,0,0,1,.659,1.556c-2.419,7.4-5.436,15.274-8.587,22.416-2.354,5.335-3.133,7.147-6.049,12.6-2.915-5.457-3.694-7.269-6.048-12.6C55.969,180.59,55.09,178.514,54.231,176.408Z"/>
<path class="a" d="M78.679,341.668c-.416-.274-.813-.569-1.2-.873a27.675,27.675,0,0,0-7.028-3.935c-1.593-.6-3.916-.992-5.179-1.962-1.758-1.351-1.658-3.922-1.658-5.75,0-1.286-.042-5.022-.042-6.494,7.136-.086,14.208-.181,18.563-.259.752.723,1.326,1.273,1.326,1.273A84.38,84.38,0,0,1,95.274,333.6a6.355,6.355,0,0,1,1.737,6.284,4.266,4.266,0,0,1-2.019,3.047,11.361,11.361,0,0,1-4.458,1.293,19.886,19.886,0,0,1-10.489-1.773A11.11,11.11,0,0,1,78.679,341.668Z"/>
<path class="a" d="M29.852,342.271a4.945,4.945,0,0,1-1.16-2.391,6.353,6.353,0,0,1,1.736-6.284,84.438,84.438,0,0,1,11.816-9.928s.378-.34.886-.8c4.154-.031,11.449-.107,18.883-.195,0,1.694-.006,5.245-.006,6.475,0,1.828.185,4.4-1.574,5.75-1.263.97-3.586,1.359-5.179,1.962a27.675,27.675,0,0,0-7.028,3.935,13.8,13.8,0,0,1-2.569,1.652,19.884,19.884,0,0,1-10.489,1.773,11.361,11.361,0,0,1-4.458-1.293A3.945,3.945,0,0,1,29.852,342.271Z"/>
<path class="a" d="M313.81,34.743a4.745,4.745,0,0,0-5.376-2.207s1.811-17-19.522-17-19.371,17.074-19.371,17.074a4.743,4.743,0,0,0-5.443,2.037,6.478,6.478,0,0,0,.225,6.278,10.232,10.232,0,0,0,5.419,4.37,22.317,22.317,0,0,0,4.432,7.617,18.967,18.967,0,0,0,3.988,3.4v1.431c.436.324,9.317,6.732,9.988,7.166h2.127c.671-.434,9.552-6.842,9.988-7.166V56a19.692,19.692,0,0,0,3.568-3.236,22.243,22.243,0,0,0,4.341-7.649c.1-.044.2-.08.2-.08a10.279,10.279,0,0,0,5.016-4.022A6.477,6.477,0,0,0,313.81,34.743Z"/>
<path class="a" d="M280.633,79.5c-1.909-4.687-3.713-9.53-5.3-14.227-1.358-.627-.941-2.6-.195-3.546.923-1.165,2.076-2.843,3.021-4,.436.324,9.317,6.732,9.988,7.166h2.127c.671-.434,9.552-6.842,9.988-7.166.945,1.152,2.1,2.83,3.021,4a3.467,3.467,0,0,1,.658,1.556c-2.418,7.4-5.435,15.274-8.586,22.416-2.355,5.336-3.134,7.147-6.049,12.6-2.915-5.457-3.694-7.268-6.048-12.6C282.371,83.686,281.491,81.611,280.633,79.5Z"/>
<path class="a" d="M350.016,247.425H228.4v96.9H350.016Z"/>
<path class="a" d="M305.137,244.764c-.416-.274-.813-.569-1.2-.873a27.736,27.736,0,0,0-7.028-3.935c-1.593-.6-3.916-.992-5.179-1.962-1.758-1.351-1.658-3.921-1.658-5.75,0-1.286-.042-5.021-.042-6.494,7.137-.086,14.208-.181,18.563-.258l1.326,1.272a84.314,84.314,0,0,1,11.816,9.929,6.354,6.354,0,0,1,1.737,6.284,4.264,4.264,0,0,1-2.019,3.046,11.361,11.361,0,0,1-4.458,1.293,19.886,19.886,0,0,1-10.489-1.773A11.11,11.11,0,0,1,305.137,244.764Z"/>
<path class="a" d="M256.31,245.367a4.945,4.945,0,0,1-1.16-2.39,6.351,6.351,0,0,1,1.736-6.284,84.372,84.372,0,0,1,11.816-9.929l.886-.8c4.154-.032,11.449-.108,18.883-.2,0,1.694-.006,5.245-.006,6.475,0,1.829.185,4.4-1.574,5.75-1.263.97-3.586,1.359-5.179,1.962a27.736,27.736,0,0,0-7.028,3.935,13.8,13.8,0,0,1-2.569,1.652,19.884,19.884,0,0,1-10.489,1.773,11.361,11.361,0,0,1-4.458-1.293A3.914,3.914,0,0,1,256.31,245.367Z"/>
<path class="a" d="M331.6,164.86c.821-.229,1.606-1,2.3-2.528.341-5.614-2.543-14.818-4.646-21.472h-13.65q.061,3.121.122,6.385l1.093,3.855c-.662,3.994.825,9.881,5.932,6.04l1.191-.851C325.437,159.805,328.735,165.66,331.6,164.86Z"/>
<path class="c" d="M301.865,148.535c-.328-.033-.635-.07-.915-.112a16.9,16.9,0,0,1-6.7-2.345,9.431,9.431,0,0,1-3.661-4.993,49.267,49.267,0,0,1-1.447-8.345,49.281,49.281,0,0,1-1.446,8.345,9.433,9.433,0,0,1-3.662,4.993,16.9,16.9,0,0,1-6.7,2.345,89.218,89.218,0,0,1-12.648.231c.486,21.158,1.486,49.642,1.951,76.766l.009.558c4.864,0,39.2-.386,45.339-.558.473-27.4,1.478-55.685,1.965-76.782A111.517,111.517,0,0,1,301.865,148.535Z"/>
<path class="b" d="M327.183,140.911c1.168,3.7,2.336,7.4,3.279,11.159a35.2,35.2,0,0,1,1.446,10.262l.273-1.01a7.762,7.762,0,0,1-.652,1.177c.091-.128-.477.643-.231.294-.108.152-.355.056-.157.122.251.084-.142.051-.163.04.682.328,0-.255-.012-.023.008-.115.451.249.05,0-.19-.12-.239-.072-.006.03a3.914,3.914,0,0,1-.415-.219c-.118-.071-.232-.15-.344-.231-.172-.123.2.177-.076-.072s-.507-.48-.743-.739c-.113-.125-.222-.252-.331-.381.006.008-.367-.467-.206-.254a24.993,24.993,0,0,1-2.371-3.945q-.25-.5-.485-1.015c-.067-.146-.132-.293-.2-.44-.249-.558.138.351-.081-.185-.2-.484-.384-.973-.54-1.473-.764-2.449-4.627-1.4-3.857,1.064a29,29,0,0,0,2.805,6.088c1.2,2.016,2.749,4.316,4.961,5.315,2.724,1.23,5.169-.4,6.39-2.887.738-1.506.415-3.542.219-5.162a55.318,55.318,0,0,0-1.011-5.714c-1-4.35-2.345-8.609-3.687-12.861-.773-2.446-4.636-1.4-3.858,1.063Z"/>
<path class="b" d="M314.9,150.568a13.848,13.848,0,0,0-.2,3.076,10.95,10.95,0,0,0,.518,2.911,6.247,6.247,0,0,0,1.589,2.637,4.427,4.427,0,0,0,3.073,1.195,6.957,6.957,0,0,0,3.888-1.52,2.181,2.181,0,0,0,.92-1.195,2.047,2.047,0,0,0-.2-1.541,2.017,2.017,0,0,0-1.195-.919,1.947,1.947,0,0,0-1.541.2,7.785,7.785,0,0,1-1.6.949l.477-.2a4.143,4.143,0,0,1-1,.276l.531-.071a2.843,2.843,0,0,1-.708,0l.532.072a2.5,2.5,0,0,1-.577-.161l.478.2a2.568,2.568,0,0,1-.5-.3l.405.313a3.119,3.119,0,0,1-.532-.539l.313.4a4.569,4.569,0,0,1-.547-.955l.2.478a7.868,7.868,0,0,1-.518-1.979l.071.532a11.514,11.514,0,0,1,0-3.019l-.071.532c.014-.1.03-.208.047-.312a2.175,2.175,0,0,0-.2-1.542,2,2,0,0,0-2.736-.717,1.942,1.942,0,0,0-.919,1.2Z"/>
<path class="c" d="M264.849,68.23a59.127,59.127,0,0,1,9.779-5.1c2.422,7.446,5.459,15.38,8.633,22.571,2.354,5.336,3.133,7.147,6.048,12.6,2.915-5.457,3.694-7.268,6.049-12.6,3.155-7.152,6.177-15.038,8.593-22.448,7.033,2.993,13.859,6.957,18.092,13.254,4.294,6.389,5.511,14.326,6.283,21.984,1.281,12.719,2.139,27.7,2.931,40.977a1.307,1.307,0,0,1-1.31,1.39H315.612q.061,3.118.122,6.385a1.346,1.346,0,0,1-1.291,1.376c-2.977.107-10.109.309-13.493-.2a16.9,16.9,0,0,1-6.7-2.345,9.431,9.431,0,0,1-3.661-4.993,49.267,49.267,0,0,1-1.447-8.345,49.281,49.281,0,0,1-1.446,8.345,9.433,9.433,0,0,1-3.662,4.993,16.9,16.9,0,0,1-6.7,2.345c-3.39.508-10.043.331-13.146.213a1.556,1.556,0,0,1-1.489-1.588c.226-12.613.421-23.18.529-34.685a13.873,13.873,0,0,1-8,1.287c-4.314-.453-7.938-3.971-9.247-8.111a27.706,27.706,0,0,1-.971-5.872c-.7-7.624-.7-11.4-1.1-16.621L253.929,80.7a28.094,28.094,0,0,1,2.315-4.195A30.468,30.468,0,0,1,264.849,68.23Z"/>
<path class="b" d="M301.173,64.261c5.829,2.329,11.7,5.206,16.18,9.7,4.633,4.644,6.816,10.765,7.977,17.1,1.24,6.777,1.634,13.749,2.238,20.6q.951,10.776,1.687,21.568.105,1.57.206,3.142c.021.34-.027,2.994.191,3.093l.689-.61h-.277a5.825,5.825,0,0,0-1.21,0H317.733c-2.574,0-2.578,4,0,4h8.36c2.813,0,7.477.713,7.559-3.39.038-1.907-.24-3.88-.367-5.783q-.2-2.963-.415-5.923-.43-5.88-.927-11.754c-.643-7.623-1.2-15.293-2.255-22.872-1.009-7.231-3.043-14.4-7.779-20.11-5.066-6.113-12.441-9.735-19.673-12.624a2.013,2.013,0,0,0-2.46,1.4,2.047,2.047,0,0,0,1.4,2.46Z"/>
<path class="b" d="M312.965,92.721c0,13.146.217,26.289.476,39.432q.1,5.118.2,10.234.022,1.2.046,2.41a14.95,14.95,0,0,0,.046,2.448l.481-.6q.1-.108-.213-.01a2.015,2.015,0,0,0-.491.016q-.86.027-1.719.048c-4.912.118-10.24.516-14.8-1.4a7.787,7.787,0,0,1-4.6-5.208,36.56,36.56,0,0,1-1.243-7.349c-.152-2.558-4.153-2.575-4,0a46.247,46.247,0,0,0,1.226,7.762,11.892,11.892,0,0,0,4.139,6.744c4.576,3.636,11.042,3.55,16.592,3.5q1.8-.015,3.593-.069c1.4-.039,2.878.06,3.985-.963,1.263-1.169,1.048-2.871,1.019-4.431q-.054-2.871-.11-5.741c-.142-7.235-.293-14.471-.408-21.706q-.2-12.556-.214-25.115c0-2.574-4-2.578-4,0Z"/>
<path class="b" d="M276.05,60.4c-9.785,3.907-19.29,9.307-23.848,19.29a2.061,2.061,0,0,0,.718,2.737,2.015,2.015,0,0,0,2.736-.718,27.219,27.219,0,0,1,8.966-10.9,57.883,57.883,0,0,1,12.492-6.552,2.062,2.062,0,0,0,1.4-2.46,2.015,2.015,0,0,0-2.461-1.4Z"/>
<path class="d" d="M289.309,98.307c2.676-5.009,3.552-6.947,5.5-11.359-.648-3.543-1.855-11.312-1.866-11.546a22.351,22.351,0,0,1,.808-4.021l.329-1.158c-1.3-1.909-2.844-4.146-3.8-5.321H288.15c-.955,1.171-2.5,3.4-3.791,5.3.191.69.318,1.154.318,1.154a23.619,23.619,0,0,1,.808,4.042c-.01.223-1.618,7.078-2.224,10.3,2.354,5.336,3.133,7.147,6.048,12.6"/>
<path class="b" d="M302.072,62.57A216.522,216.522,0,0,1,287.582,97.3c-1.211,2.271,2.241,4.294,3.454,2.019a222.681,222.681,0,0,0,14.893-35.683c.8-2.452-3.06-3.5-3.857-1.063Z"/>
<path class="b" d="M301.7,98.347c3-4.22,5.826-8.557,8.571-12.95a56.562,56.562,0,0,0,3.041-4.859c.776-1.587-.058-2.857-1.027-4.09-.918-1.167-1.866-2.311-2.811-3.456V75.82c1.52-1.867,3-3.78,4.635-5.553,1.741-1.892-1.081-4.728-2.829-2.829-1.631,1.773-3.114,3.686-4.635,5.554a2.077,2.077,0,0,0,0,2.828q.862,1.044,1.719,2.092c.4.491,1.243,1.232,1.352,1.845V78.694a6.3,6.3,0,0,1-1.019,1.689q-.609.959-1.21,1.923c-.819,1.309-1.635,2.62-2.462,3.925q-3.256,5.138-6.779,10.1a2.016,2.016,0,0,0,.717,2.736,2.043,2.043,0,0,0,2.737-.717Z"/>
<path class="b" d="M272.689,63.633a222.681,222.681,0,0,0,14.893,35.683c1.212,2.273,4.666.254,3.454-2.019a216.522,216.522,0,0,1-14.49-34.727c-.8-2.436-4.659-1.394-3.857,1.063Z"/>
<path class="b" d="M280.539,98.12q-3.74-5.252-7.185-10.7c-.878-1.386-1.745-2.779-2.616-4.17q-.637-1.019-1.28-2.033a6.756,6.756,0,0,1-1.1-1.832v1.063c.126-.707,1.007-1.446,1.465-2.011.6-.743,1.214-1.481,1.824-2.219a2.077,2.077,0,0,0,0-2.828c-1.613-1.982-3.186-4.012-4.918-5.892-1.747-1.9-4.57.936-2.828,2.828s3.3,3.911,4.917,5.892V73.388c-1,1.215-2.009,2.428-2.982,3.666-1.047,1.332-1.886,2.654-1,4.338.948,1.794,2.2,3.486,3.277,5.208,2.871,4.593,5.825,9.126,8.968,13.539a2.057,2.057,0,0,0,2.737.717,2.016,2.016,0,0,0,.717-2.736Z"/>
<path class="b" d="M262.689,148.654c.451,19.563,1.11,39.121,1.576,58.683q.215,9.041.375,18.083c.044,2.571,4.044,2.579,4,0-.355-20.592-1-41.177-1.565-61.763q-.207-7.5-.386-15c-.06-2.57-4.06-2.579-4,0Z"/>
<path class="b" d="M311.953,148.638c-.453,19.538-1.117,39.071-1.586,58.608q-.218,9.087-.379,18.174c-.045,2.575,3.955,2.575,4,0,.358-20.623,1-41.24,1.578-61.858q.207-7.461.387-14.924c.059-2.575-3.941-2.574-4,0Z"/>
<path class="b" d="M287.309,158.938v67.043c0,2.573,4,2.578,4,0V158.938c0-2.574-4-2.578-4,0Z"/>
<path class="b" d="M266.64,227.981c12.566,0,25.138-.232,37.7-.421,2.548-.038,5.1-.07,7.645-.14,2.568-.071,2.579-4.071,0-4-12.789.353-25.593.389-38.385.51-2.321.022-4.642.05-6.963.051-2.574,0-2.578,4,0,4Z"/>
<path class="b" d="M291.822,70.849a15.482,15.482,0,0,0-.877,4.587,28.945,28.945,0,0,0,.429,2.912c.474,3.048.952,6.1,1.506,9.131a2.017,2.017,0,0,0,2.46,1.4,2.043,2.043,0,0,0,1.4-2.46c-.534-2.927-1-5.868-1.455-8.807q-.133-.849-.262-1.7c-.029-.194-.059-.389-.087-.583l-.03-.21c-.051-.329.095.326.046.347,0,0,.012-.421.012-.421-.012.3-.032.192.01-.045.035-.2.07-.39.108-.584.168-.841.371-1.675.6-2.5.69-2.484-3.168-3.545-3.857-1.064Z"/>
<path class="b" d="M292.25,73.511h-6.072a2,2,0,0,0,0,4h6.072a2,2,0,0,0,0-4Z"/>
<path class="b" d="M282.748,71.891q.294,1.085.528,2.185c.077.362.127.732.207,1.093-.113-.51.025-.071,0,.029,0,.052.006.105,0,.157,0,.215.021.064.068-.453a15,15,0,0,0-.486,2.214c-.6,2.679-1.224,5.357-1.735,8.055a2.054,2.054,0,0,0,1.4,2.461,2.019,2.019,0,0,0,2.46-1.4c.529-2.8,1.177-5.567,1.8-8.342a13.117,13.117,0,0,0,.5-2.491,17.2,17.2,0,0,0-.879-4.574c-.672-2.482-4.532-1.429-3.858,1.063Z"/>
<path class="a" d="M300.265,57.736c.945,1.152,2.1,2.83,3.021,4a3.078,3.078,0,0,1,.549,2.781c-.4.729-4.807,7.162-7.659,8.821-.827-1.2-4.244-6.4-5.9-8.431C290.948,64.468,299.829,58.06,300.265,57.736Z"/>
<path class="a" d="M278.162,57.736c-.945,1.152-2.1,2.83-3.021,4a3.078,3.078,0,0,0-.549,2.781c.405.729,4.808,7.162,7.659,8.821.827-1.2,4.245-6.4,5.9-8.431C287.479,64.468,278.6,58.06,278.162,57.736Z"/>
<path class="b" d="M298.851,59.151c.6.737,1.22,1.612,1.827,2.431.342.461.739.905,1.054,1.385A2.413,2.413,0,0,1,302,63.7c-.017-.1-.114.343.038-.048.1-.248.038-.073-.009-.013-.1.132-.186.291-.279.432-.3.454-.614.9-.932,1.342q-.32.445-.648.885c-.109.146-.219.29-.328.436a1.837,1.837,0,0,1-.15.194c-.508.646-1.026,1.284-1.567,1.9-.522.6-1.061,1.179-1.636,1.725-.248.235-.506.456-.764.679-.35.3.259-.147-.086.064-.158.1-.308.209-.468.3l2.736.717c-2.03-2.968-3.947-6.036-6.212-8.836l-.4,3.141c3.416-2.238,6.7-4.741,9.988-7.166a2.059,2.059,0,0,0,.717-2.736,2.014,2.014,0,0,0-2.736-.718c-3.286,2.425-6.572,4.929-9.988,7.166a2.039,2.039,0,0,0-.4,3.141c.061.076.446.572.135.165.135.177.269.354.4.533q.39.526.768,1.061.864,1.213,1.7,2.446c.867,1.269,1.713,2.553,2.581,3.822a2.041,2.041,0,0,0,2.737.717,17,17,0,0,0,3.958-3.622c1.2-1.4,2.326-2.869,3.389-4.375.978-1.385,1.707-2.611,1.32-4.423a7.753,7.753,0,0,0-1.721-3.077c-.807-1.089-1.6-2.188-2.452-3.241a2.014,2.014,0,0,0-2.829,0A2.048,2.048,0,0,0,298.851,59.151Z"/>
<path class="b" d="M276.748,56.322c-.854,1.053-1.646,2.152-2.453,3.241a7.731,7.731,0,0,0-1.721,3.077c-.387,1.812.343,3.038,1.32,4.423,1.063,1.506,2.187,2.978,3.389,4.375a17,17,0,0,0,3.958,3.622,2.046,2.046,0,0,0,2.737-.717c.868-1.269,1.714-2.553,2.581-3.822q.84-1.23,1.7-2.446.38-.534.768-1.061c.132-.179.266-.356.4-.533-.31.407.074-.089.135-.165a2.038,2.038,0,0,0-.405-3.141c-3.416-2.237-6.7-4.741-9.988-7.166a2.015,2.015,0,0,0-2.736.718,2.046,2.046,0,0,0,.717,2.736c3.286,2.425,6.572,4.928,9.988,7.166l-.4-3.141c-2.265,2.8-4.181,5.868-6.212,8.836l2.736-.717c-.139-.084-.272-.176-.409-.264-.366-.235.046.051-.082-.055-.285-.234-.56-.476-.827-.729-.551-.523-1.069-1.08-1.57-1.65-.565-.643-1.1-1.306-1.633-1.978a1.373,1.373,0,0,1-.15-.194c-.109-.146-.219-.29-.328-.436q-.329-.44-.648-.885c-.318-.442-.631-.888-.932-1.342-.089-.134-.168-.279-.264-.408l-.08-.131c.222-.108.01.759.1.136-.03.2.166-.565.1-.4s.337-.576.156-.3c.317-.48.71-.922,1.053-1.385.608-.821,1.227-1.691,1.827-2.431a2.06,2.06,0,0,0,0-2.829A2.015,2.015,0,0,0,276.748,56.322Z"/>
<path class="b" d="M286.471,225.769q0,2.663,0,5.326c0,1.436.243,3.1-.245,4.476-.567,1.6-3.015,1.785-4.412,2.239a27.257,27.257,0,0,0-6.381,3.106c-2.069,1.349-3.8,2.858-6.2,3.628a18.346,18.346,0,0,1-6.95.83c-1.709-.124-4.328-.422-5.009-2.26a4.6,4.6,0,0,1,.918-4.889,74.853,74.853,0,0,1,11.526-9.734c2.089-1.47.093-4.94-2.019-3.454A81.076,81.076,0,0,0,255.358,235.4c-3.639,3.85-3.224,10.77,2.014,12.93,5.066,2.089,11.848,1.251,16.535-1.471,1.249-.725,2.332-1.7,3.54-2.485a26.6,26.6,0,0,1,4-2.166c2.173-.932,4.744-1.162,6.654-2.639,2.247-1.739,2.371-4.561,2.363-7.173-.007-2.208,0-4.415,0-6.623,0-2.574-4-2.578-4,0Z"/>
<path class="b" d="M288.027,225.75c0,1.959.031,3.918.04,5.876.011,2.155-.087,4.456,1.051,6.381,1.307,2.209,3.838,2.814,6.124,3.5a24.2,24.2,0,0,1,7.349,3.852,20.609,20.609,0,0,0,16.641,3.609c2.685-.6,4.99-1.948,5.92-4.637a8.661,8.661,0,0,0-.659-7.354c-1.4-2.284-3.813-4.137-5.805-5.887a91.34,91.34,0,0,0-7.763-6.057c-2.11-1.484-4.11,1.982-2.019,3.454a86.052,86.052,0,0,1,10.442,8.667c1.344,1.3,2.55,2.583,2.326,4.606a4.057,4.057,0,0,1-.76,2.169,5.827,5.827,0,0,1-3.168,1.268,16.8,16.8,0,0,1-13.136-3.292,29.207,29.207,0,0,0-6.534-3.629c-.923-.375-1.868-.65-2.821-.935a6.247,6.247,0,0,1-2.376-.988c-1.214-1.083-.805-3.531-.813-4.981-.011-1.875-.037-3.75-.039-5.626,0-2.573-4-2.578-4,0Z"/>
<path class="e" d="M265.123,19.9a22.534,22.534,0,0,1,4.823-9.794c4.288-4.818,9.412-7.4,17.207-7.972,6.03-.445,13.018,1.507,15.939,5.316a21.393,21.393,0,0,1,4.081,2.855c5.275,5.4,7.272,14.091,4.681,22.574a4.748,4.748,0,0,0-3.335-.363h-1.541a23.766,23.766,0,0,0-5.689-8.358,12.571,12.571,0,0,0-3.622-2.565l-7.69-.67c-2.641,1.191-6.366,3.692-8.456,4.935-.5.3-1.086-.175-1.02-.822a4.289,4.289,0,0,0-.09-1.47c-.139-.614-.58-.875-.923-.682-2.928,1.643-7.424,6.249-9.947,9.723a4.787,4.787,0,0,0-4.3.761A28.214,28.214,0,0,1,265.123,19.9Z"/>
<path class="b" d="M313.968,32.778a26.026,26.026,0,0,0-1.992-19.328A18.2,18.2,0,0,0,305.527,6.6c-1.2-.74-2.07-1.769-3.2-2.619a16.918,16.918,0,0,0-3.771-2.071c-11.056-4.564-25.468-.736-32.033,9.433-3.939,6.1-4.9,13.931-3.576,20.971.476,2.526,4.332,1.456,3.857-1.063-1.907-10.1,2.352-21.442,12.37-25.393a25.422,25.422,0,0,1,15.86-.944A12.846,12.846,0,0,1,301.292,8.4a16.551,16.551,0,0,0,3.262,2.318,11.641,11.641,0,0,1,2.781,2.863c3.75,5.256,4.429,12,2.776,18.135-.671,2.489,3.186,3.55,3.857,1.064Z"/>
<path class="b" d="M308.965,34.465c.165-.045.326-.078.493-.113-.453.1.037.012.137.01.169,0,.337.009.5.018-.28-.016-.156-.026.052.018q.249.054.49.132c.175.058.326.137.073.015.153.074.3.15.449.237.053.033.484.352.149.076a4.662,4.662,0,0,1,.375.342c.07.071.364.462.123.116.082.117.159.237.23.362.046.079.089.159.128.242q-.091-.246-.016-.046a5.362,5.362,0,0,1,.269,1c-.068-.405,0,.192.007.231.007.193.006.388,0,.581,0,.083-.076.632-.013.244-.026.161-.059.322-.1.48-.045.191-.1.38-.16.566-.034.107-.148.421-.042.162a6.012,6.012,0,0,1-.557,1.021s-.355.5-.147.23c-.12.158-.253.308-.385.455a10.224,10.224,0,0,1-.782.776q-.187.168-.382.327c.251-.2-.187.134-.239.17a10.608,10.608,0,0,1-1.019.625c-.173.093-.35.178-.527.263-.376.183.188-.065-.235.094a2.045,2.045,0,0,0-1.4,2.46,2.024,2.024,0,0,0,2.461,1.4c4.029-1.52,7.573-5.116,7.528-9.658a6.978,6.978,0,0,0-2.829-5.691,6.792,6.792,0,0,0-5.7-1,2,2,0,0,0,1.063,3.857Z"/>
<path class="b" d="M270.073,30.678a6.787,6.787,0,0,0-5.725.874,7.017,7.017,0,0,0-2.953,5.631c-.187,4.551,3.322,8.206,7.284,9.844a2.005,2.005,0,0,0,2.46-1.4,2.063,2.063,0,0,0-1.4-2.46c.35.145-.211-.108-.226-.115-.175-.088-.348-.182-.518-.28a10.461,10.461,0,0,1-.918-.6c-.11-.081-.108-.078,0,.008-.078-.062-.156-.126-.232-.192-.128-.109-.254-.22-.376-.334a11.752,11.752,0,0,1-.83-.87c-.4-.462.174.278-.173-.221-.112-.161-.222-.322-.325-.489q-.126-.207-.239-.421c-.046-.085-.089-.172-.13-.26.058.151.061.161.011.029a6.827,6.827,0,0,1-.311-1.03c-.006-.03-.093-.635-.053-.242-.02-.194-.033-.389-.036-.584s.01-.387.015-.581c.008-.371-.03.08.013-.134a5.455,5.455,0,0,1,.282-1c-.147.355.083-.13.124-.2s.352-.482.078-.158a4.893,4.893,0,0,1,.347-.373c.073-.071.467-.356.117-.117.117-.08.234-.157.356-.228.051-.03.521-.264.291-.162s.186-.062.237-.077c.162-.051.326-.086.491-.125.5-.12-.378-.005.138-.015.169,0,.336,0,.5,0,.42,0-.305-.105.136.011.163.043.326.079.488.128a2.019,2.019,0,0,0,2.461-1.4,2.042,2.042,0,0,0-1.4-2.46Z"/>
<path class="b" d="M306.246,44.58a19.883,19.883,0,0,1-6.5,9.346,17.2,17.2,0,0,1-10.488,3.267A17.919,17.919,0,0,1,278.3,54a19.431,19.431,0,0,1-6.632-9.268c-.842-2.415-4.708-1.376-3.857,1.063,2.376,6.814,7.622,12.786,14.794,14.611,7.2,1.83,15.285.643,20.887-4.431A24.445,24.445,0,0,0,310.1,45.644c.827-2.444-3.035-3.493-3.857-1.064Z"/>
<path class="b" d="M293.775,37.242a3.918,3.918,0,0,1,.968-3.146,2.992,2.992,0,0,1,2.048-.873,3.208,3.208,0,0,1,2.683,1.258,3.937,3.937,0,0,1-.084,4.592,3.058,3.058,0,0,1-4.122.672A3.356,3.356,0,0,1,293.775,37.242Z"/>
<path class="b" d="M278.162,37.242a3.918,3.918,0,0,1,.968-3.146,2.992,2.992,0,0,1,2.048-.873,3.208,3.208,0,0,1,2.683,1.258,3.937,3.937,0,0,1-.084,4.592,3.057,3.057,0,0,1-4.121.672A3.354,3.354,0,0,1,278.162,37.242Z"/>
<path class="b" d="M296.658,23.32c.449.222.893.454,1.319.718.217.135.426.28.636.426.167.116.119.086-.015-.019.137.108.271.218.4.331a23.009,23.009,0,0,1,2.595,2.638q.279.328.548.665c.384.475-.109-.156.1.126.1.129.192.256.287.385q.561.77,1.065,1.579c.323.522.626,1.057.9,1.607.119.237.225.481.341.721.1.215-.1-.276.032.078.059.158.12.314.177.473a2.069,2.069,0,0,0,1.929,1.468h1.648a2,2,0,0,0,0-4h-1.648l1.928,1.468a24.091,24.091,0,0,0-4.357-7.253,18.492,18.492,0,0,0-5.872-4.865,2,2,0,1,0-2.019,3.454Z"/>
<path class="b" d="M271.268,33.616a43.885,43.885,0,0,1,4.509-5.143c.794-.788,1.614-1.551,2.471-2.269.353-.3.71-.58,1.085-.846.2-.139.395-.275.6-.405l.192-.122q.5-.265-.274.008l-1.009-.273q-.468-.8-.326-.349a3.156,3.156,0,0,1,.011.424,4.6,4.6,0,0,0,.057,1.192,2.892,2.892,0,0,0,1.3,1.757c1.481.866,2.814-.093,4.056-.867a64.756,64.756,0,0,1,7.05-4.073,2.015,2.015,0,0,0,.718-2.736,2.046,2.046,0,0,0-2.736-.718,43.377,43.377,0,0,0-4.435,2.448c-.712.435-1.419.878-2.127,1.32-.318.2-.635.4-.954.594a4.966,4.966,0,0,0-.437.269c-.5.386-.315-.164.406.107l.883.515c.173.139.137.919.218.327a3.117,3.117,0,0,0-.027-.715,4.906,4.906,0,0,0-.349-1.543,2.65,2.65,0,0,0-2.746-1.657c-1.528.2-3.08,1.745-4.2,2.7a47.378,47.378,0,0,0-7.385,8.035,2.016,2.016,0,0,0,.718,2.737,2.046,2.046,0,0,0,2.736-.718Z"/>
<path class="b" d="M261.321,92.721c0,14.2-.166,28.408-.411,42.61-.065,3.746-.214,7.5-.2,11.247a3.8,3.8,0,0,0,1.88,3.642c1.193.625,2.774.462,4.086.494,5.721.143,11.848.4,17.123-2.184,5.842-2.856,7-9.934,7.344-15.79.153-2.571-3.847-2.562-4,0a39.873,39.873,0,0,1-1.082,6.7,7.92,7.92,0,0,1-3.475,5.2c-4.3,2.626-10.086,2.188-14.929,2.095a11.74,11.74,0,0,0-2.987-.082c-.83.242.344-.391,0,.25l.031.144.017-.939q.024-1.388.05-2.775.087-4.864.17-9.73.156-9.179.262-18.357.121-11.264.12-22.526c0-2.574-4-2.578-4,0Z"/>
<path class="b" d="M241.918,83.046c.256,3.4.386,6.8.6,10.206q.219,3.441.541,6.873a24.775,24.775,0,0,0,1.306,6.8,14.013,14.013,0,0,0,8.078,8.124c3.765,1.388,8.126.733,11.686-.905a2.015,2.015,0,0,0,.717-2.736,2.046,2.046,0,0,0-2.736-.718,11.3,11.3,0,0,1-8.947.359,10.443,10.443,0,0,1-5.65-7.589,78.212,78.212,0,0,1-1.072-11.467c-.175-2.982-.3-5.966-.525-8.945-.192-2.551-4.194-2.572-4,0Z"/>
<path class="a" d="M242.068,77.4a19.581,19.581,0,0,0-1.447-2.43,6.107,6.107,0,0,1-1.261-3.859,7.064,7.064,0,0,1,.61-2.388c1.4-2.177,2.61-4.079,4.071-5.925a15.661,15.661,0,0,1,1.13-1.232,3.522,3.522,0,0,1,2.442-1.012,13.473,13.473,0,0,1,3.121,1.741l.957-.733c.446-.309.757-.778,1.184-1.113a3.136,3.136,0,0,1,3.3.036,13.126,13.126,0,0,1,2.575,1.993,3.663,3.663,0,0,1,1.13,2.143,1.625,1.625,0,0,1-.382,1.524,2.82,2.82,0,0,1-2.189.8,4.769,4.769,0,0,1,1.367,3.626,2.512,2.512,0,0,1-.039.562,2.4,2.4,0,0,1-.235.552c-.867,1.644-2.449,3.585-1.715,5.579,1.808,5.241,1.559,7.856-.14,9.339a12.356,12.356,0,0,1-4.656,2.477,10.983,10.983,0,0,1-3.114.269,5.725,5.725,0,0,1-2.361-1.372,5.967,5.967,0,0,1-1.065-2.233c-.266-.962-1.079-3.341-1.692-4.89A36.322,36.322,0,0,0,242.068,77.4Z"/>
<path class="b" d="M258.322,65.216c-2.409-1.829-4.881-3.6-7.446-5.2a10.991,10.991,0,0,0-2.49-1.326,4.974,4.974,0,0,0-4.34,1.209,18.8,18.8,0,0,0-3.041,3.646,24.732,24.732,0,0,0-3.054,4.82,7.981,7.981,0,0,0-.566,3.5,10.3,10.3,0,0,0,1.963,4.791,36.042,36.042,0,0,1,3.473,7.735,22.444,22.444,0,0,0,1.4,3.912,6.625,6.625,0,0,0,4.14,3.013,9.064,9.064,0,0,0,3.547-.211,11.373,11.373,0,0,0,3.407-1.261c2.376-1.273,4.221-2.979,4.546-5.75a13.059,13.059,0,0,0-.39-4.442c-.23-.991-.613-1.935-.861-2.917a2.7,2.7,0,0,1,.4-2.075c.792-1.51,1.738-2.726,1.659-4.514a7.432,7.432,0,0,0-1.943-4.612c-1.654-1.976-4.471.866-2.828,2.829a2.927,2.927,0,0,1,.776,2.211c-.051.774.154-.211-.086.261-.139.273-.3.534-.458.8a18.2,18.2,0,0,0-1.016,1.943,6.1,6.1,0,0,0-.469,3.85c.343,1.469.959,2.849,1.188,4.354a7.466,7.466,0,0,1,.038,2.124,1.781,1.781,0,0,1-.74,1.287,9.118,9.118,0,0,1-5.095,2.172,4.539,4.539,0,0,0-.769.049c-.225.069-.41-.207.146.052a4.211,4.211,0,0,1-1.519-.825c-.674-.775-.839-2.188-1.162-3.148a49.825,49.825,0,0,0-2.752-6.736c-.926-1.819-2.9-3.855-2.584-5.91a7.409,7.409,0,0,1,1.57-3.076c.789-1.2,1.583-2.429,2.488-3.553a6.665,6.665,0,0,1,1.331-1.4c.177-.114.433-.128.592-.241q.548-.021-.153-.063c.137.05.13.045-.02-.013-.041.049-.1-.064.187.106.182.109.374.206.558.312.481.28.952.577,1.42.877,2.378,1.526,4.684,3.171,6.933,4.879a2.013,2.013,0,0,0,2.737-.717,2.051,2.051,0,0,0-.718-2.737Z"/>
<path class="b" d="M252.7,63.288a7.446,7.446,0,0,0,1-.859c.094-.1.186-.2.283-.3.063-.064.129-.126.2-.185l-.206.156a2.02,2.02,0,0,1,.2-.12c.191-.092.138-.071-.158.065a1.365,1.365,0,0,0,.341-.086c-.317.036-.4.049-.237.036.06,0,.12-.007.181-.007a1.4,1.4,0,0,0,.364.018q-.492-.074-.166-.016c.08.017.161.036.24.057.119.032.235.074.352.112.4.126-.383-.218-.034-.009.113.068.231.125.344.193a4.559,4.559,0,0,1,.827.561c-.359-.346-.011,0,.062.056q.206.169.406.347c.247.216.5.435.728.668.082.084.162.2.251.276q-.279-.37-.1-.113c.033.049.065.1.095.152s.06.1.088.156q.138.287-.051-.15a1.476,1.476,0,0,0,.121.349c.036.124.062.247.092.372.1.4-.07-.441-.007.065q-.007.245.045-.236a1.565,1.565,0,0,1-.056.214l.117-.28q-.16.262.132-.138a1.36,1.36,0,0,0-.183.188c-.188.233.454-.27.082-.068a1.377,1.377,0,0,0-.318.178l.271-.113c-.074.028-.149.053-.224.076-.477.139.013-.033.035.026,0,0-.511.008-.554.006a2.012,2.012,0,0,0-2,2,2.046,2.046,0,0,0,2,2,4.732,4.732,0,0,0,3.72-1.464,4.333,4.333,0,0,0,.335-4.827,8.6,8.6,0,0,0-2.752-2.949,7.364,7.364,0,0,0-3.962-1.694,4.5,4.5,0,0,0-2.449.525,4.412,4.412,0,0,0-1,.775c-.129.127-.25.263-.376.393-.1.1-.529.451-.1.135a2.178,2.178,0,0,0-.919,1.2,2,2,0,0,0,2.938,2.259Z"/>
<path class="f" d="M218.675,141.088c-9.458,5.1-19.71,11.036-30.468,13.708a1,1,0,0,0,.012,1.942l9.282,2.267a1.007,1.007,0,0,1,.55,1.61c-14.9,18.132-42.548,35.032-66.81,45.031a1.21,1.21,0,0,0,.722,2.3c15.677-2.948,34.46-9.123,43.484-13.974,11.786-6.336,23.639-14.156,30.535-23.219a.964.964,0,0,1,1.585.175c1.419,2.482,3.491,5.775,5.409,8.971a1,1,0,0,0,1.836-.3,364.62,364.62,0,0,0,5.327-37.54A1,1,0,0,0,218.675,141.088Z"/>
<path class="b" d="M350.016,245.425H228.4a2.029,2.029,0,0,0-2,2v96.9a2.028,2.028,0,0,0,2,2H350.016a2.029,2.029,0,0,0,2-2v-96.9c0-2.574-4-2.578-4,0v96.9l2-2H228.4l2,2v-96.9l-2,2H350.016C352.589,249.425,352.594,245.425,350.016,245.425Z"/>
<path class="b" d="M1.932,346.328H123.545c2.574,0,2.578-4,0-4H1.932c-2.574,0-2.578,4,0,4Z"/>
<path class="g" d="M216.207,109.558h0a21.145,21.145,0,0,1,4.722-8.486A15.024,15.024,0,0,1,229.4,96.48v0a16.1,16.1,0,0,1-8.928-4.662c-2.477-2.674-4-8.546-4.261-9.057-.215.512-2.03,6.429-4.508,9.1a15.358,15.358,0,0,1-8.7,4.617v0a14.114,14.114,0,0,1,8.586,4.627A23.668,23.668,0,0,1,216.207,109.558Z"/>
<path class="b" d="M216.207,111.558h0a2.029,2.029,0,0,0,1.929-1.468,15.427,15.427,0,0,1,11.8-11.681A2.018,2.018,0,0,0,231.4,96.48v0a2.01,2.01,0,0,0-1.468-1.928c-3.462-.553-7.12-2.362-8.973-5.443-1.4-2.322-1.933-4.918-3.021-7.357-.782-1.755-3.1-.925-3.655.477a41.479,41.479,0,0,1-3.042,6.922,12.648,12.648,0,0,1-8.768,5.4,2.012,2.012,0,0,0-1.469,1.928v0a2.015,2.015,0,0,0,1.469,1.928,12.843,12.843,0,0,1,7.559,3.951,19,19,0,0,1,4.243,7.732c.6,2.5,4.463,1.441,3.857-1.064a23.273,23.273,0,0,0-5.272-9.5,16.313,16.313,0,0,0-9.324-4.98l1.468,1.929v0l-1.468,1.929A16.518,16.518,0,0,0,214.353,91.7c1.759-2.572,2.658-5.545,3.791-8.41l-3.655.478c-.217-.486-.127-.309-.018.036.072.231.15.461.225.691.246.748.5,1.492.78,2.228a23.117,23.117,0,0,0,2.541,5.187,16.847,16.847,0,0,0,10.856,6.5L227.4,96.477v0l1.469-1.928c-7.088,1.32-12.975,7.489-14.592,14.474l1.928-1.468h0C213.633,107.538,213.63,111.538,216.207,111.558Z"/>
<path class="g" d="M344.016,47.287h0A21.145,21.145,0,0,1,348.74,38.8a15.024,15.024,0,0,1,8.473-4.592v0a16.1,16.1,0,0,1-8.928-4.662c-2.477-2.674-4.005-8.546-4.261-9.057-.215.512-2.03,6.428-4.508,9.1a15.358,15.358,0,0,1-8.7,4.617h0a14.121,14.121,0,0,1,8.586,4.628A23.668,23.668,0,0,1,344.016,47.287Z"/>
<path class="b" d="M344.016,49.287h0a2.029,2.029,0,0,0,1.929-1.468,15.427,15.427,0,0,1,11.8-11.681,2.018,2.018,0,0,0,1.468-1.929v0a2.01,2.01,0,0,0-1.468-1.928c-3.462-.553-7.12-2.362-8.973-5.443-1.4-2.322-1.933-4.918-3.021-7.357-.782-1.755-3.1-.925-3.655.477a41.479,41.479,0,0,1-3.042,6.922,12.648,12.648,0,0,1-8.768,5.4,2.012,2.012,0,0,0-1.469,1.928h0a2.015,2.015,0,0,0,1.469,1.929,12.843,12.843,0,0,1,7.559,3.951,19,19,0,0,1,4.243,7.732c.6,2.5,4.463,1.441,3.857-1.064a23.273,23.273,0,0,0-5.272-9.5,16.313,16.313,0,0,0-9.324-4.98l1.468,1.928h0l-1.468,1.929a16.518,16.518,0,0,0,10.813-6.706c1.759-2.572,2.658-5.545,3.791-8.41L342.3,21.5c-.217-.485-.127-.308-.018.037.072.231.149.461.225.691.246.748.5,1.492.78,2.228a23.117,23.117,0,0,0,2.541,5.187,16.847,16.847,0,0,0,10.856,6.5l-1.469-1.929v0l1.469-1.928c-7.088,1.32-12.975,7.489-14.592,14.474l1.928-1.468h0C341.442,45.267,341.439,49.267,344.016,49.287Z"/>
<path class="c" d="M50.06,245.429a107.194,107.194,0,0,1-11.831.125c.779,21.132,1.488,49.642,1.953,76.77l.009.558c4.864,0,39.2-.386,45.339-.558.473-27.4.982-55.712,1.969-76.782-3.209.108-9.8.266-13.007-.215a16.9,16.9,0,0,1-6.7-2.345,9.431,9.431,0,0,1-3.661-4.993,49.267,49.267,0,0,1-1.447-8.345,49.281,49.281,0,0,1-1.446,8.345,9.433,9.433,0,0,1-3.662,4.993,16.9,16.9,0,0,1-6.7,2.345C50.626,245.364,50.352,245.4,50.06,245.429Z"/>
<path class="c" d="M99.121,180.746a30.38,30.38,0,0,0-3.536-7.333c-4.233-6.3-11.06-10.261-18.094-13.254-2.414,7.41-5.436,15.3-8.591,22.448-2.355,5.335-3.134,7.147-6.049,12.6-2.915-5.457-3.694-7.269-6.048-12.6-3.174-7.192-6.211-15.126-8.633-22.572-7.137,3.008-14.093,6.994-18.384,13.378S24.274,187.738,23.5,195.4c-1.281,12.719-1.827,27.673-2.43,40.977a1.315,1.315,0,0,0,1.311,1.39h13.8q-.045,3.127-.089,6.385a1.349,1.349,0,0,0,1.29,1.376c2.977.107,10.109.309,13.494-.2a16.9,16.9,0,0,0,6.7-2.345,9.433,9.433,0,0,0,3.662-4.993,49.281,49.281,0,0,0,1.446-8.345,49.267,49.267,0,0,0,1.447,8.345,9.431,9.431,0,0,0,3.661,4.993,16.9,16.9,0,0,0,6.7,2.345c3.384.507,10.516.305,13.493.2a1.347,1.347,0,0,0,1.291-1.376q-.06-3.263-.114-6.385h14.054a1.31,1.31,0,0,0,1.311-1.39c-.738-13.341-1.378-28.258-2.659-40.977A67.477,67.477,0,0,0,99.121,180.746Z"/>
<path class="b" d="M74.715,161.165c5.708,2.28,11.455,5.083,15.9,9.421,4.569,4.458,6.971,10.368,8.2,16.541,1.323,6.626,1.418,13.514,1.877,20.24q.728,10.653,1.385,21.31.178,2.953.347,5.909a5.489,5.489,0,0,0,.075,1.343q-.117,1.052.714-.165H91.275c-2.574,0-2.578,4,0,4h8.681a14.169,14.169,0,0,0,4.391-.214c2.053-.7,2.209-2.674,2.105-4.515-.442-7.847-.948-15.69-1.476-23.531-.5-7.421-.712-14.943-1.768-22.31-1.013-7.066-3.315-14.066-8.011-19.564-5.069-5.935-12.3-9.479-19.419-12.322a2.013,2.013,0,0,0-2.46,1.4,2.047,2.047,0,0,0,1.4,2.46Z"/>
<path class="b" d="M86.507,189.625q.225,19.782.513,39.562.076,4.836.161,9.671c.007.4.008,5.282.095,5.291l.481-.6.014-.017a3.935,3.935,0,0,0-.718.024q-.859.027-1.719.048c-4.911.117-10.239.519-14.8-1.4a7.791,7.791,0,0,1-4.6-5.208,36.572,36.572,0,0,1-1.243-7.349c-.152-2.558-4.153-2.576-4,0a46.263,46.263,0,0,0,1.226,7.762,11.9,11.9,0,0,0,4.139,6.743c4.579,3.639,11.041,3.55,16.592,3.5q1.938-.018,3.876-.077c1.32-.039,2.661.007,3.7-.956,1.372-1.27,1.042-3.219,1.012-4.9q-.051-2.838-.1-5.676-.182-10.743-.324-21.488-.165-12.465-.3-24.932c-.029-2.572-4.029-2.579-4,0Z"/>
<path class="b" d="M49.592,157.308c-6.31,2.521-12.575,5.549-17.522,10.312-5.12,4.93-8,11.555-9.375,18.444-1.451,7.269-1.58,14.811-2.053,22.19q-.756,11.787-1.355,23.584-.078,1.593-.153,3.186a5.537,5.537,0,0,0,.323,2.967c.967,1.81,2.812,1.773,4.6,1.773H34.1c2.573,0,2.578-4,0-4H22.7q-.9-.105.372.61a10.674,10.674,0,0,0,.105-2.256q.071-1.483.144-2.968.544-10.872,1.247-21.735c.426-6.708.542-13.562,1.61-20.2.994-6.178,2.974-12.448,7.213-17.2,4.592-5.146,10.952-8.324,17.265-10.846a2.063,2.063,0,0,0,1.4-2.46,2.015,2.015,0,0,0-2.461-1.4Z"/>
<path class="b" d="M34.863,189.625q-.287,21.826-.616,43.654-.039,2.79-.079,5.581a52.5,52.5,0,0,0-.044,5.595c.326,3.438,4.017,3.111,6.552,3.164,5.656.117,11.792.377,16.952-2.33,5.6-2.94,6.716-9.912,7.057-15.645.153-2.571-3.847-2.562-4,0a39.873,39.873,0,0,1-1.082,6.7,7.964,7.964,0,0,1-3.36,5.13c-4.148,2.675-9.81,2.238-14.561,2.165q-1.551-.024-3.1-.072a4.051,4.051,0,0,0-.965-.015l.481.6.013-.976q.011-.726.02-1.452.072-5.133.145-10.267.138-9.548.276-19.095.164-11.367.314-22.734c.034-2.575-3.966-2.576-4,0Z"/>
<path class="d" d="M62.851,195.211c2.676-5.009,3.552-6.947,5.5-11.36-.648-3.542-1.855-11.311-1.866-11.545a22.351,22.351,0,0,1,.808-4.021l.329-1.158c-1.3-1.909-2.844-4.146-3.8-5.321H61.692c-.955,1.171-2.5,3.4-3.791,5.3.191.69.318,1.153.318,1.153a23.647,23.647,0,0,1,.808,4.043c-.01.223-1.618,7.078-2.224,10.3,2.354,5.335,3.133,7.147,6.048,12.6"/>
<path class="b" d="M75.614,159.474A216.56,216.56,0,0,1,61.124,194.2c-1.211,2.271,2.241,4.294,3.454,2.019a222.681,222.681,0,0,0,14.893-35.683c.8-2.453-3.06-3.5-3.857-1.063Z"/>
<path class="b" d="M75.246,195.251c3.005-4.22,5.826-8.558,8.571-12.95a56.562,56.562,0,0,0,3.041-4.859c.776-1.587-.058-2.857-1.027-4.09-.918-1.168-1.866-2.311-2.811-3.456v2.828c1.52-1.867,3-3.781,4.635-5.554,1.741-1.891-1.081-4.727-2.829-2.828-1.631,1.773-3.114,3.686-4.635,5.554a2.077,2.077,0,0,0,0,2.828q.863,1.044,1.719,2.092c.4.491,1.243,1.231,1.352,1.845V175.6a6.291,6.291,0,0,1-1.019,1.69q-.609.958-1.21,1.923c-.819,1.309-1.635,2.62-2.462,3.924q-3.256,5.139-6.779,10.1a2.016,2.016,0,0,0,.717,2.736,2.044,2.044,0,0,0,2.737-.717Z"/>
<path class="b" d="M46.231,160.537A222.681,222.681,0,0,0,61.124,196.22c1.212,2.272,4.666.254,3.454-2.019a216.56,216.56,0,0,1-14.49-34.727c-.8-2.437-4.659-1.394-3.857,1.063Z"/>
<path class="b" d="M54.081,195.024q-3.741-5.252-7.185-10.7c-.878-1.386-1.745-2.779-2.616-4.17q-.638-1.018-1.28-2.033a6.756,6.756,0,0,1-1.1-1.832v1.063c.126-.707,1.007-1.447,1.465-2.011.6-.743,1.214-1.481,1.823-2.219a2.075,2.075,0,0,0,0-2.828C43.577,168.31,42,166.28,40.272,164.4c-1.747-1.9-4.57.936-2.828,2.828s3.3,3.911,4.917,5.892v-2.828c-1,1.214-2.009,2.427-2.982,3.666-1.047,1.331-1.886,2.653-1,4.338.948,1.794,2.2,3.486,3.277,5.208,2.871,4.593,5.825,9.126,8.968,13.538a2.056,2.056,0,0,0,2.737.718,2.016,2.016,0,0,0,.717-2.736Z"/>
<path class="b" d="M36.231,245.558c.717,19.554,1.2,39.118,1.609,58.681q.186,9.042.342,18.085c.044,2.571,4.044,2.579,4,0q-.531-30.89-1.448-61.772-.231-7.5-.5-14.994c-.095-2.566-4.095-2.579-4,0Z"/>
<path class="b" d="M85.5,245.542c-.906,19.521-1.278,39.068-1.642,58.6q-.169,9.089-.323,18.177c-.045,2.575,3.955,2.575,4,0,.356-20.624.692-41.252,1.379-61.868q.249-7.46.586-14.914c.119-2.573-3.881-2.567-4,0Z"/>
<path class="b" d="M60.851,255.842v67.042c0,2.574,4,2.578,4,0V255.842c0-2.574-4-2.578-4,0Z"/>
<path class="b" d="M40.182,324.884c12.566,0,25.138-.231,37.7-.42,2.548-.038,5.1-.07,7.645-.14,2.568-.071,2.579-4.071,0-4-12.789.353-25.593.389-38.385.509-2.321.022-4.642.05-6.963.051-2.574,0-2.578,4,0,4Z"/>
<path class="b" d="M65.364,167.753a15.476,15.476,0,0,0-.877,4.586,28.964,28.964,0,0,0,.429,2.913c.474,3.048.952,6.1,1.506,9.131a2.018,2.018,0,0,0,2.46,1.4,2.043,2.043,0,0,0,1.4-2.46c-.534-2.927-1-5.868-1.455-8.807q-.133-.849-.262-1.7c-.029-.194-.059-.389-.087-.583l-.03-.21c-.051-.329.1.326.046.347,0,0,.012-.422.012-.421-.012.3-.032.191.01-.045.035-.195.07-.39.108-.584.168-.841.371-1.676.6-2.5.69-2.484-3.168-3.544-3.857-1.063Z"/>
<path class="b" d="M65.792,170.415H59.72a2,2,0,0,0,0,4h6.072a2,2,0,0,0,0-4Z"/>
<path class="b" d="M56.29,168.8q.294,1.085.528,2.185c.077.362.127.731.207,1.092-.113-.509.025-.071,0,.03,0,.052.006.1.005.156,0,.215.021.065.068-.452a15,15,0,0,0-.486,2.214c-.6,2.679-1.224,5.357-1.735,8.055a2.053,2.053,0,0,0,1.4,2.46,2.018,2.018,0,0,0,2.46-1.4c.529-2.8,1.177-5.567,1.8-8.342a13.117,13.117,0,0,0,.5-2.491,17.192,17.192,0,0,0-.879-4.574c-.672-2.482-4.532-1.429-3.858,1.063Z"/>
<path class="a" d="M73.807,154.64c.945,1.152,2.1,2.83,3.021,4a3.078,3.078,0,0,1,.549,2.781c-.405.729-4.807,7.161-7.659,8.821-.827-1.206-4.244-6.4-5.9-8.431C64.49,161.372,73.371,154.963,73.807,154.64Z"/>
<path class="a" d="M51.7,154.64c-.945,1.152-2.1,2.83-3.021,4a3.078,3.078,0,0,0-.549,2.781c.405.729,4.808,7.161,7.659,8.821.827-1.206,4.245-6.4,5.9-8.431C61.021,161.372,52.14,154.963,51.7,154.64Z"/>
<path class="b" d="M72.393,156.054c.6.738,1.22,1.613,1.827,2.431.342.462.739.906,1.054,1.386a2.413,2.413,0,0,1,.264.736c-.017-.1-.114.342.038-.048.1-.249.038-.074-.009-.014-.1.133-.186.292-.279.432-.3.454-.614.9-.932,1.343q-.319.445-.648.885c-.109.145-.219.29-.328.436a1.837,1.837,0,0,1-.15.194c-.508.646-1.026,1.284-1.567,1.9-.522.6-1.061,1.179-1.636,1.725-.248.235-.506.455-.764.679-.35.3.259-.147-.086.064-.158.1-.308.208-.468.3l2.736.718c-2.03-2.969-3.947-6.037-6.212-8.836l-.4,3.141c3.416-2.238,6.7-4.741,9.988-7.166a2.059,2.059,0,0,0,.717-2.736,2.014,2.014,0,0,0-2.736-.718c-3.286,2.425-6.572,4.928-9.988,7.166a2.039,2.039,0,0,0-.405,3.141c.061.076.446.572.135.164q.2.266.4.534.39.526.768,1.06c.576.809,1.141,1.627,1.7,2.447.867,1.269,1.713,2.553,2.581,3.822a2.041,2.041,0,0,0,2.737.717,17.019,17.019,0,0,0,3.958-3.622c1.2-1.4,2.326-2.869,3.389-4.375.977-1.385,1.707-2.611,1.32-4.423a7.753,7.753,0,0,0-1.721-3.077c-.807-1.089-1.6-2.188-2.452-3.241a2.014,2.014,0,0,0-2.829,0A2.047,2.047,0,0,0,72.393,156.054Z"/>
<path class="b" d="M50.29,153.226c-.854,1.053-1.646,2.152-2.453,3.241a7.731,7.731,0,0,0-1.721,3.077c-.387,1.812.343,3.038,1.32,4.423,1.063,1.506,2.187,2.977,3.389,4.375a17.019,17.019,0,0,0,3.958,3.622,2.046,2.046,0,0,0,2.737-.717c.868-1.269,1.714-2.553,2.581-3.822.56-.82,1.125-1.638,1.7-2.447q.38-.533.768-1.06.2-.269.4-.534c-.31.408.074-.088.135-.164a2.038,2.038,0,0,0-.405-3.141c-3.416-2.238-6.7-4.741-9.988-7.166a2.013,2.013,0,0,0-2.736.718,2.046,2.046,0,0,0,.717,2.736c3.286,2.425,6.572,4.928,9.988,7.166l-.4-3.141c-2.265,2.8-4.182,5.867-6.212,8.836l2.736-.718c-.139-.083-.272-.175-.409-.263-.366-.236.046.051-.082-.055-.285-.234-.56-.476-.827-.729-.551-.523-1.069-1.08-1.57-1.65-.565-.643-1.1-1.306-1.633-1.978a1.373,1.373,0,0,1-.15-.194c-.109-.146-.219-.291-.328-.436q-.328-.44-.648-.885c-.318-.443-.631-.889-.932-1.343-.089-.133-.168-.279-.264-.407l-.08-.131c.222-.108.01.758.1.135-.03.2.166-.564.1-.4s.337-.576.156-.3c.317-.48.709-.922,1.053-1.386.608-.82,1.227-1.69,1.827-2.431a2.058,2.058,0,0,0,0-2.828A2.014,2.014,0,0,0,50.29,153.226Z"/>
<path class="b" d="M60.013,322.673q0,2.662,0,5.326c0,1.436.243,3.1-.245,4.476-.567,1.6-3.016,1.784-4.412,2.239a27.257,27.257,0,0,0-6.381,3.106c-2.069,1.349-3.8,2.858-6.2,3.627a18.306,18.306,0,0,1-6.95.83c-1.709-.123-4.328-.422-5.009-2.26a4.6,4.6,0,0,1,.918-4.888A74.853,74.853,0,0,1,43.254,325.4c2.089-1.47.093-4.94-2.019-3.454A80.961,80.961,0,0,0,28.9,332.3c-3.639,3.85-3.224,10.77,2.014,12.93,5.066,2.089,11.848,1.25,16.535-1.471,1.249-.725,2.332-1.7,3.54-2.486a26.6,26.6,0,0,1,4-2.165c2.173-.932,4.744-1.162,6.654-2.64,2.247-1.738,2.371-4.56,2.363-7.173-.007-2.207,0-4.415.005-6.622,0-2.574-4-2.578-4,0Z"/>
<path class="b" d="M61.569,322.654c0,1.959.031,3.918.04,5.876.011,2.154-.087,4.456,1.051,6.38,1.307,2.21,3.837,2.815,6.124,3.5a24.179,24.179,0,0,1,7.349,3.852,20.609,20.609,0,0,0,16.641,3.609c2.685-.6,4.99-1.948,5.92-4.638a8.659,8.659,0,0,0-.659-7.353c-1.4-2.284-3.813-4.137-5.8-5.887a91.34,91.34,0,0,0-7.763-6.057c-2.11-1.484-4.11,1.982-2.019,3.454a86.052,86.052,0,0,1,10.442,8.667c1.344,1.3,2.55,2.583,2.326,4.6a4.069,4.069,0,0,1-.76,2.17,5.842,5.842,0,0,1-3.168,1.268,16.807,16.807,0,0,1-13.136-3.292,29.207,29.207,0,0,0-6.534-3.629c-.923-.375-1.868-.651-2.821-.935a6.233,6.233,0,0,1-2.376-.989c-1.214-1.082-.805-3.531-.813-4.98-.011-1.876-.037-3.751-.039-5.626,0-2.573-4-2.578-4,0Z"/>
<path class="e" d="M38.665,116.8a22.543,22.543,0,0,1,4.823-9.8c4.288-4.818,9.412-7.395,17.207-7.971,6.03-.446,13.018,1.507,15.939,5.316a21.393,21.393,0,0,1,4.081,2.855C85.99,112.6,87.987,121.3,85.4,129.782a4.753,4.753,0,0,0-3.335-.362H80.52a23.766,23.766,0,0,0-5.689-8.358,12.571,12.571,0,0,0-3.622-2.565l-7.69-.67c-2.641,1.191-6.366,3.692-8.456,4.935-.5.3-1.086-.175-1.02-.822a4.288,4.288,0,0,0-.09-1.47c-.139-.614-.58-.875-.923-.682-2.928,1.643-7.424,6.249-9.947,9.723a4.787,4.787,0,0,0-4.3.761A28.214,28.214,0,0,1,38.665,116.8Z"/>
<path class="b" d="M87.51,129.681a26.027,26.027,0,0,0-1.992-19.328,18.2,18.2,0,0,0-6.449-6.854c-1.2-.741-2.07-1.769-3.2-2.62A16.918,16.918,0,0,0,72.1,98.808c-11.056-4.563-25.468-.735-32.033,9.434-3.939,6.1-4.905,13.931-3.576,20.971.476,2.526,4.332,1.456,3.857-1.064-1.907-10.1,2.352-21.441,12.37-25.392a25.414,25.414,0,0,1,15.86-.944,12.852,12.852,0,0,1,6.259,3.488,16.469,16.469,0,0,0,3.262,2.318,11.676,11.676,0,0,1,2.781,2.863c3.75,5.256,4.429,12,2.776,18.136-.671,2.488,3.186,3.55,3.857,1.063Z"/>
<path class="b" d="M82.507,131.369c.165-.045.326-.078.493-.113-.453.1.037.011.137.009.169,0,.337.009.5.019-.28-.016-.156-.027.052.018q.249.054.49.132c.175.057.326.137.073.015.153.073.3.15.449.237.053.032.484.352.149.075a4.857,4.857,0,0,1,.375.342c.07.072.364.463.123.116.082.118.159.238.23.362.046.079.089.16.128.243q-.091-.246-.016-.046a5.352,5.352,0,0,1,.269,1c-.068-.405,0,.192.007.232.007.193.006.388,0,.581,0,.083-.076.632-.013.244-.026.161-.059.321-.1.48-.045.191-.1.38-.16.566-.034.106-.148.421-.042.162a6.05,6.05,0,0,1-.557,1.021s-.355.5-.147.23c-.12.158-.253.307-.385.454a10.237,10.237,0,0,1-.782.777q-.187.168-.382.326c.251-.2-.187.135-.239.171a10.608,10.608,0,0,1-1.019.625c-.173.093-.35.178-.527.263-.376.182.188-.066-.235.094a2,2,0,1,0,1.064,3.857c4.029-1.52,7.573-5.116,7.528-9.658a6.978,6.978,0,0,0-2.829-5.691,6.8,6.8,0,0,0-5.7-1,2,2,0,0,0,1.063,3.858Z"/>
<path class="b" d="M43.615,127.582a6.787,6.787,0,0,0-5.725.874,7.017,7.017,0,0,0-2.953,5.631c-.188,4.551,3.322,8.206,7.284,9.844a2.005,2.005,0,0,0,2.46-1.4,2.063,2.063,0,0,0-1.4-2.46c.35.145-.211-.108-.226-.116q-.262-.132-.518-.279a10.694,10.694,0,0,1-.918-.6c-.11-.081-.108-.079.005.008-.078-.062-.156-.127-.232-.192-.128-.109-.254-.22-.376-.334a11.752,11.752,0,0,1-.83-.87c-.4-.463.174.278-.173-.221-.112-.161-.222-.323-.325-.49q-.126-.206-.239-.42c-.046-.086-.089-.172-.13-.26.058.151.061.161.011.029a6.862,6.862,0,0,1-.311-1.03c-.006-.03-.093-.636-.053-.242-.02-.194-.033-.389-.036-.584s.01-.387.015-.581c.008-.372-.03.08.013-.134a5.433,5.433,0,0,1,.282-1c-.147.354.083-.13.124-.2s.352-.481.078-.157a4.893,4.893,0,0,1,.347-.373c.073-.071.467-.356.117-.118.117-.079.234-.156.356-.227.051-.03.521-.265.291-.163s.186-.061.237-.076c.162-.051.326-.086.491-.126.5-.119-.378,0,.138-.015.169,0,.336,0,.505,0,.42,0-.3-.105.136.011.163.042.326.079.488.128a2.02,2.02,0,0,0,2.461-1.4,2.042,2.042,0,0,0-1.4-2.46Z"/>
<path class="b" d="M79.788,141.484a19.885,19.885,0,0,1-6.5,9.345A17.2,17.2,0,0,1,62.8,154.1a17.919,17.919,0,0,1-10.961-3.192,19.436,19.436,0,0,1-6.632-9.268c-.842-2.415-4.708-1.377-3.857,1.063,2.376,6.814,7.621,12.786,14.794,14.61,7.2,1.831,15.285.644,20.887-4.43a24.448,24.448,0,0,0,6.616-10.333c.827-2.443-3.035-3.492-3.857-1.063Z"/>
<path class="b" d="M67.317,134.146A3.918,3.918,0,0,1,68.285,131a2.992,2.992,0,0,1,2.048-.873,3.206,3.206,0,0,1,2.683,1.257,3.939,3.939,0,0,1-.084,4.593,3.059,3.059,0,0,1-4.122.672A3.359,3.359,0,0,1,67.317,134.146Z"/>
<path class="b" d="M51.7,134.146A3.918,3.918,0,0,1,52.672,131a2.992,2.992,0,0,1,2.048-.873,3.206,3.206,0,0,1,2.683,1.257,3.939,3.939,0,0,1-.084,4.593,3.058,3.058,0,0,1-4.121.672A3.357,3.357,0,0,1,51.7,134.146Z"/>
<path class="b" d="M70.2,120.224c.449.221.893.454,1.319.718.217.135.426.28.636.426.167.116.119.086-.015-.019.137.107.271.218.4.331a22.928,22.928,0,0,1,2.595,2.638q.279.329.548.665c.384.475-.109-.156.1.126.095.128.192.256.287.385q.561.77,1.065,1.579c.323.522.626,1.057.9,1.606.119.238.225.482.341.721.1.216-.1-.275.032.079.059.158.12.314.177.473a2.069,2.069,0,0,0,1.929,1.468h1.647a2,2,0,1,0,0-4H80.52l1.928,1.468a24.079,24.079,0,0,0-4.357-7.253,18.492,18.492,0,0,0-5.872-4.865,2,2,0,1,0-2.019,3.454Z"/>
<path class="b" d="M44.81,130.52a43.8,43.8,0,0,1,4.509-5.143c.794-.788,1.614-1.552,2.471-2.269.353-.3.71-.58,1.085-.846.2-.14.4-.276.6-.406l.192-.121q.5-.265-.274.007l-1.009-.273q-.468-.8-.326-.348a3.156,3.156,0,0,1,.011.424,4.588,4.588,0,0,0,.057,1.191,2.889,2.889,0,0,0,1.3,1.757c1.481.867,2.814-.093,4.056-.866a64.756,64.756,0,0,1,7.05-4.073,2.016,2.016,0,0,0,.718-2.737,2.046,2.046,0,0,0-2.736-.717,43.377,43.377,0,0,0-4.435,2.448c-.712.435-1.419.877-2.127,1.32-.318.2-.635.4-.954.594a4.738,4.738,0,0,0-.437.269c-.5.386-.315-.164.406.107l.883.514c.173.14.137.92.218.328a3.115,3.115,0,0,0-.027-.715,4.906,4.906,0,0,0-.349-1.543,2.65,2.65,0,0,0-2.746-1.658c-1.528.2-3.08,1.746-4.2,2.7a47.378,47.378,0,0,0-7.385,8.035,2.014,2.014,0,0,0,.718,2.736,2.045,2.045,0,0,0,2.736-.717Z"/>
</g>
</svg>