<!DOCTYPE svg PUBLIC "-//W3C//DTD SVG 1.1//EN" "http://www.w3.org/Graphics/SVG/1.1/DTD/svg11.dtd">
<!-- Uploaded to: SVG Repo, www.svgrepo.com, Transformed by: SVG Repo Mixer Tools -->
<svg width="800px" height="800px" viewBox="0 -48.89 324.864 324.864" xmlns="http://www.w3.org/2000/svg" fill="#000000">
<g id="SVGRepo_bgCarrier" stroke-width="0"/>
<g id="SVGRepo_tracerCarrier" stroke-linecap="round" stroke-linejoin="round"/>
<g id="SVGRepo_iconCarrier">
<defs>
<style>.a{fill:#ffffff;}.b{fill:#d9d9d9;}.c{fill:#211715;}.d{fill:#3d8dcc;}</style>
</defs>
<path class="a" d="M38.306,122.853c-.013-34.678-.031-80.643-.042-109.985A10.386,10.386,0,0,1,48.655,2.476c44.775-.014,174.516-.058,227.6-.077a10.394,10.394,0,0,1,10.4,10.4c0,39.362.016,103.291.032,144.02,8.222,11.554,25.861,35.87,34.487,50.6a9.526,9.526,0,0,1,1.3,4.827c0,1.5-.032,3.322-.032,5.2a7.217,7.217,0,0,1-7.216,7.208H8.531a6.016,6.016,0,0,1-6.018-6.015c0-9.282-.034,2.724-.034-6.381a9.578,9.578,0,0,1,1.3-4.847c8.719-14.89,26.43-39.972,34.536-51.352C38.316,147.66,38.312,136.077,38.306,122.853Z"/>
<path class="b" d="M269.638,160.864a6.283,6.283,0,0,1,5.157,2.694c3.912,5.586,8.118,11.762,11.857,17.781a3.028,3.028,0,0,1-2.564,4.634H40.881a3.025,3.025,0,0,1-2.582-4.61c3.747-6.034,7.965-12.227,11.886-17.829a6.268,6.268,0,0,1,5.144-2.675c44.876,0,169.432,0,214.309,0"/>
<path class="c" d="M269.638,163.264c1.779.054,2.776,1.062,3.739,2.442q1.948,2.793,3.864,5.607,1.89,2.783,3.736,5.6.921,1.407,1.826,2.824a18.155,18.155,0,0,1,1.854,2.957c.176.466-.028.811-.648.883a5.225,5.225,0,0,1-.587,0H42.216a4.345,4.345,0,0,1-1.7-.113.6.6,0,0,1-.271-.528,8.408,8.408,0,0,1,1.135-1.97c2.439-3.861,4.974-7.661,7.556-11.427a33.489,33.489,0,0,1,3.68-5.174,4.525,4.525,0,0,1,3.438-1.1h26.1l33.646,0H269.638c3.088,0,3.093-4.8,0-4.8H94.224l-29.857,0H58.316c-2.826,0-5.629-.126-8.041,1.638-1.784,1.3-2.906,3.283-4.144,5.073q-1.965,2.84-3.892,5.705-2.017,3-3.974,6.048c-1.107,1.728-2.692,3.585-2.8,5.721-.179,3.424,2.639,5.7,5.863,5.729,1.843.013,3.686,0,5.529,0H281.978c.656,0,1.315.019,1.971,0a5.719,5.719,0,0,0,3.279-1.018,5.458,5.458,0,0,0,2.267-4.729c-.129-2.208-1.786-4.133-2.935-5.921-2.414-3.757-4.911-7.46-7.45-11.134-1.151-1.666-2.221-3.642-3.778-4.963a9.031,9.031,0,0,0-5.694-2.144c-3.09-.094-3.087,4.706,0,4.8Z"/>
<path class="a" d="M52.292,15.763c.014,35.8.057,131.59.057,131.59,37.213-.014,184.2-.063,220.317-.073-.016-38.714-.042-99.076-.057-131.585C272.609,15.7,84.778,15.756,52.292,15.763Z"/>
<path class="c" d="M285.035,209.457H49.576c-3.192,0-6.391-.059-9.584,0-.136,0-.272,0-.409,0-3.088,0-3.093,4.8,0,4.8H275.042c3.192,0,6.391.06,9.583,0,.137,0,.273,0,.41,0,3.088,0,3.093-4.8,0-4.8Z"/>
<path class="c" d="M40.706,122.853l-.024-63.462L40.67,28.8q0-6.722-.005-13.444c0-1.977-.139-3.942.7-5.79a8.1,8.1,0,0,1,3.982-3.982c2.472-1.131,5.576-.7,8.236-.7l8.014,0,19.03-.006,46.621-.016,52.337-.017,50.461-.018L271.213,4.8c3.088,0,6.512-.482,9.26,1.2a7.924,7.924,0,0,1,3.38,4.269A18.4,18.4,0,0,1,284.26,16q0,13.4,0,26.8,0,30.6.013,61.191l.009,29.811q0,6.852,0,13.7l0,6.428c0,.954-.068,1.937,0,2.888a5.559,5.559,0,0,0,1.427,2.754c10.352,14.509,20.892,28.94,30.351,44.057,1.031,1.649,2.1,3.3,3.036,5,1.382,2.5.963,5.439.942,8.193a5.123,5.123,0,0,1-2.389,4.775,6.441,6.441,0,0,1-3.446.657H11.4c-1.542,0-3.463.288-4.809-.563-2.374-1.5-1.519-4.456-1.685-6.812-.179-2.549-4.1-3.438-4.714-.638a16.014,16.014,0,0,0-.1,1.662h4.8a14.363,14.363,0,0,1,.49-6.323c1.123-2.816,3.2-5.491,4.81-8.048,3.728-5.911,7.607-11.726,11.534-17.506q5.831-8.581,11.809-17.061,2.511-3.573,5.041-7.134a12.192,12.192,0,0,0,2.063-3.134c.441-1.588.084-3.765.084-5.4l-.012-28.441c0-3.088-4.8-3.093-4.8,0q.008,16.6.014,33.2l.327-1.211c-11.3,15.868-22.675,31.792-32.8,48.446C1.881,205.866.374,208.318.12,211.405A25.245,25.245,0,0,0,.087,215.9a2.4,2.4,0,0,0,4.8,0c.047-.406.207-1.646-.067-.386l-4.715-.638c.242,3.441-.319,6.6,2.2,9.415,2.186,2.444,5.112,2.76,8.165,2.76H311.7c2.062,0,4.3.207,6.29-.4a9.814,9.814,0,0,0,5.436-4.183c1.443-2.32,1.415-4.831,1.437-7.47.027-3.133-.045-5.981-1.609-8.792-1.014-1.822-2.149-3.587-3.258-5.352-2.488-3.964-5.071-7.868-7.69-11.745-5.522-8.177-11.217-16.236-16.946-24.269q-3.294-4.619-6.593-9.233l.328,1.211q-.01-28.089-.019-56.179-.009-30.119-.012-60.235,0-13.108,0-26.218c0-4.44-1.218-8.525-4.829-11.378C280.95.211,277.306,0,273.308,0l-39.76.014L184.182.031,132.354.049,85.208.064,49.775.075c-4.1,0-7.946,1.156-10.721,4.349-3.116,3.585-3.19,7.7-3.189,12.2q.006,14.144.011,28.288.012,31.718.025,63.434,0,7.255,0,14.51C35.908,125.942,40.708,125.947,40.706,122.853Z"/>
<path class="c" d="M49.892,15.763q0,13.3.011,26.6.008,16.749.014,33.5l.015,33.171.012,26.165c0,3.986-.155,8.008,0,11.992,0,.056,0,.112,0,.168a2.435,2.435,0,0,0,2.4,2.4l32.781-.012,47.918-.016,53.455-.018,48.84-.016,34.558-.011h2.765a2.435,2.435,0,0,0,2.4-2.4q-.01-26.2-.022-52.408l-.024-54.155q0-12.512-.011-25.022a2.434,2.434,0,0,0-2.4-2.4H267.56l-13.87.005-20.779.007-25.77.008-28.849.009-30.012.01-29.261.009-26.595.008-22.015.006-15.52,0h-2.6c-3.089,0-3.094,4.8,0,4.8l13.633,0,20.6-.006,25.648-.008,28.784-.009,30-.01,29.311-.009,26.7-.009,22.18-.007,15.744,0c2.45,0,4.945.137,7.392,0,.105-.006.213,0,.318,0l-2.4-2.4.021,47.975.024,55.39.012,28.22,2.4-2.4-32.262.009-47.653.016-53.44.018-49.076.016-35.044.013H52.349l2.4,2.4q-.006-4.877,0-9.752-.006-12.391-.011-24.784l-.015-32.661q-.008-16.929-.014-33.857l-.012-27.817V15.763C54.691,12.675,49.891,12.67,49.892,15.763Z"/>
<path class="a" d="M229.572,190.422a29.26,29.26,0,0,1-7.938-6.908A100.05,100.05,0,0,1,211.9,168.9c-1.293-2.3-1.821-4.739-.131-6.771a6.788,6.788,0,0,1,6.368-2.3l2.041.618c-3.124-8.095-8.269-21.412-11.523-29.873-1.117-2.906-.853-7.089,3.164-8.634a6.36,6.36,0,0,1,8.565,3.9l9.045,23.528.207-1.009a6.237,6.237,0,0,1,5.756-5.018,4.812,4.812,0,0,1,5.225,3.632,5.273,5.273,0,0,1,4.74-4.941c2.834-.419,5.805.759,6.467,3.287.362-2.089,1.832-2.881,3.734-3.46,2.5-.759,6.06,1.927,6.952,4.247,1.778,4.623,3.2,8.343,5.21,13.562a59.464,59.464,0,0,1,1.826,6.193c2.234,12.619-4.673,17.624-7.837,20.327a39.971,39.971,0,0,1-15.6,6.55C241.428,193.58,235.613,193.879,229.572,190.422Z"/>
<path class="c" d="M224.845,165.914q-5.461-14.235-10.977-28.451c-.982-2.549-2.033-5.084-2.947-7.658-.67-1.89-.822-4.187,1.156-5.345a4.053,4.053,0,0,1,5.81,1.666,59.393,59.393,0,0,1,2.579,6.589l6.722,17.483a2.471,2.471,0,0,0,2.952,1.677,2.418,2.418,0,0,0,1.676-2.953l-6.483-16.864c-1.009-2.622-1.889-5.355-3.079-7.9a8.741,8.741,0,0,0-8.312-5.11A8.557,8.557,0,0,0,206,125.1c-.819,3.046.218,5.78,1.3,8.586q3.552,9.228,7.116,18.451,2.9,7.524,5.806,15.05a2.47,2.47,0,0,0,2.952,1.676,2.418,2.418,0,0,0,1.676-2.953Z"/>
<path class="c" d="M231.948,149a3.978,3.978,0,0,1,2.973-3.187c1.489-.311,3.024.248,3.38,1.8.619,2.7,4.637,2.008,4.714-.638.082-2.831,5.63-3.833,6.493-1.016.657,2.144,4.115,2.42,4.628,0a2.4,2.4,0,0,1,3.185-1.65,5.783,5.783,0,0,1,3.336,3.641c1.828,4.757,3.923,9.5,5.431,14.364a24.609,24.609,0,0,1,1.343,10.793,14.806,14.806,0,0,1-1.483,4.753,16.85,16.85,0,0,1-1.168,1.915c-.091.129-.183.257-.278.384-.265.354.341-.412-.123.153q-.353.429-.727.841a28.919,28.919,0,0,1-2.619,2.477,21.76,21.76,0,0,1-3.675,2.471,37.517,37.517,0,0,1-13.366,4.564c.331-.046-.495.057-.639.072-.44.045-.88.082-1.32.107-.823.048-1.649.06-2.472.029a18.594,18.594,0,0,1-5.207-.926c-4.455-1.431-8.08-4.578-11.023-8.126-1.093-1.319-1.71-2.151-2.785-3.662-1.484-2.087-2.883-4.236-4.214-6.423-.848-1.394-1.7-2.8-2.466-4.237-.512-.963-1.072-2.234-.6-3.32a3.84,3.84,0,0,1,2.014-1.73,8.033,8.033,0,0,1,1.166-.335,5.859,5.859,0,0,1,.675-.026c.567-.015.041-.033.375.054,2.991.782,4.267-3.846,1.276-4.629a8.849,8.849,0,0,0-7.154,1.536,7.464,7.464,0,0,0-3.019,8.164c.793,3.049,2.93,5.931,4.592,8.567,1.315,2.084,2.693,4.129,4.158,6.11,3.024,4.088,6.419,7.943,10.867,10.525a24.521,24.521,0,0,0,13.141,3.26c8.929-.3,18.384-3.941,24.81-10.222a20.02,20.02,0,0,0,5.657-9.834,27.4,27.4,0,0,0-.9-13.887c-.936-3.173-2.253-6.236-3.438-9.322l-1.752-4.564a18,18,0,0,0-1.9-4.252c-1.7-2.334-4.556-4.368-7.559-4.255a7.177,7.177,0,0,0-6.767,5.343h4.628c-1.125-3.672-4.939-5.466-8.6-5.07-3.9.421-7.2,3.3-7.317,7.363l4.714-.638c-.885-3.86-4.828-5.839-8.557-5.278a8.691,8.691,0,0,0-7.052,6.664c-.694,3.006,3.933,4.289,4.628,1.276Z"/>
<path class="b" d="M162.477,32.547a49.423,49.423,0,0,0-29.618,9.558A48.232,48.232,0,0,0,115.87,66.283c-5.9,18.967-.2,41.746,15.723,54.121,15.825,12.3,39.881,13.516,57.139,3.429,17.433-10.191,24.893-31.244,21.945-50.662a48.238,48.238,0,0,0-13.138-26.356,47.754,47.754,0,0,0-26.752-13.609,56.528,56.528,0,0,0-8.31-.659c-3.089-.01-3.093,4.79,0,4.8a45.159,45.159,0,0,1,26.9,8.663A42.706,42.706,0,0,1,204.45,67.5c5.3,17.022.629,37.549-13.389,48.943-6.755,5.491-15.52,8.455-24.22,9.1-9.252.688-18.723-.827-26.9-5.34a40.773,40.773,0,0,1-17.226-18.564,48.433,48.433,0,0,1-3.76-27.471,44.014,44.014,0,0,1,11.818-23.892,43.476,43.476,0,0,1,24.473-12.407,47.779,47.779,0,0,1,7.229-.519C165.565,37.337,165.571,32.537,162.477,32.547Z"/>
<path class="d" d="M140.139,86.948c4.417,4.423,8.745,8.934,13.16,13.359a6.209,6.209,0,0,0,8.641,0Q175.6,86.9,189.006,73.231a6.11,6.11,0,0,0-8.641-8.641Q166.988,78.28,153.3,91.665h8.641c-4.415-4.425-8.743-8.935-13.16-13.358a6.11,6.11,0,1,0-8.641,8.641Z"/>
</g>
</svg>